<svg width="30" height="24" viewBox="0 0 30 24" fill="none" xmlns="http://www.w3.org/2000/svg">
<path d="M11.0988 11.4486H13.9901C15.5802 11.4486 17.1053 12.0749 18.2297 13.1899C19.3541 14.3049 19.9858 15.8172 19.9858 17.394H10.6578L10.6591 18.7152H21.3182V17.394C21.314 15.9882 20.9044 14.6129 20.1377 13.4304H23.9829C25.2424 13.43 26.4761 13.7837 27.5411 14.4504C28.6061 15.1171 29.4587 16.0695 30 17.1971C26.8489 21.3206 21.7472 24 15.9886 24C12.3099 24 9.19346 23.2205 6.66193 21.853V9.56055C8.28293 9.79081 9.81365 10.4422 11.0988 11.4486ZM3.99716 8.14554C4.3235 8.14559 4.63848 8.26439 4.88236 8.47943C5.12623 8.69447 5.28203 8.99078 5.32022 9.31217L5.32954 9.46675V21.3576C5.32954 21.708 5.18917 22.0441 4.9393 22.2918C4.68943 22.5396 4.35053 22.6788 3.99716 22.6788H1.33239C0.979015 22.6788 0.640117 22.5396 0.390247 22.2918C0.140376 22.0441 0 21.708 0 21.3576V9.46675C0 9.11634 0.140376 8.78029 0.390247 8.53252C0.640117 8.28474 0.979015 8.14554 1.33239 8.14554H3.99716ZM16.8493 0.978007L17.321 1.44704L17.7927 0.979328C18.1015 0.670455 18.4689 0.425117 18.8736 0.257397C19.2784 0.0896784 19.7125 0.00288205 20.1512 0.00199158C20.5898 0.0011011 21.0243 0.086134 21.4298 0.252208C21.8352 0.418283 22.2035 0.662128 22.5137 0.969745C22.8238 1.27736 23.0696 1.64269 23.237 2.04476C23.4043 2.44683 23.49 2.87772 23.4889 3.31269C23.4879 3.74767 23.4003 4.17815 23.231 4.57945C23.0618 4.98074 22.8142 5.34493 22.5027 5.65111L17.321 10.788L12.138 5.64847C11.8265 5.3422 11.5791 4.97794 11.41 4.5766C11.2409 4.17526 11.1533 3.74475 11.1524 3.30977C11.1515 2.8748 11.2373 2.44393 11.4048 2.04191C11.5722 1.63989 11.8181 1.27463 12.1284 0.9671C12.4386 0.65957 12.807 0.415828 13.2125 0.249867C13.618 0.0839064 14.0525 -0.00100454 14.4911 8.96695e-06C14.9298 0.00102247 15.3639 0.0879404 15.7686 0.255773C16.1733 0.423606 16.5406 0.669047 16.8493 0.978007Z" fill="black"/>
</svg>
