<svg width="9" height="16" viewBox="0 0 9 16" fill="none" xmlns="http://www.w3.org/2000/svg">
<path d="M4.75948 6.34597H8.32908L7.93246 7.93246H4.75948V15.0717H3.17298V7.93246H0V6.34597H3.17298V4.86101C3.17298 3.44665 3.32053 2.93342 3.59658 2.41622C3.86708 1.90522 4.28496 1.48734 4.79597 1.21684C5.31316 0.940787 5.82639 0.793243 7.24075 0.793243C7.65482 0.793243 8.01813 0.832906 8.32908 0.91223V2.37974H7.24075C6.19049 2.37974 5.87081 2.44161 5.54479 2.61612C5.30364 2.74463 5.12437 2.9239 4.99586 3.16505C4.82135 3.49107 4.75948 3.81075 4.75948 4.86101V6.34597Z" fill="#002940"/>
</svg>
