<svg width="17" height="16" viewBox="0 0 17 16" fill="none" xmlns="http://www.w3.org/2000/svg">
<path d="M8.26568 5.55272C7.63454 5.55272 7.02924 5.80344 6.58295 6.24973C6.13666 6.69602 5.88594 7.30131 5.88594 7.93246C5.88594 8.56361 6.13666 9.1689 6.58295 9.61519C7.02924 10.0615 7.63454 10.3122 8.26568 10.3122C8.89683 10.3122 9.50212 10.0615 9.94841 9.61519C10.3947 9.1689 10.6454 8.56361 10.6454 7.93246C10.6454 7.30131 10.3947 6.69602 9.94841 6.24973C9.50212 5.80344 8.89683 5.55272 8.26568 5.55272ZM8.26568 3.96623C9.31759 3.96623 10.3264 4.3841 11.0702 5.12791C11.814 5.87172 12.2319 6.88055 12.2319 7.93246C12.2319 8.98437 11.814 9.9932 11.0702 10.737C10.3264 11.4808 9.31759 11.8987 8.26568 11.8987C7.21377 11.8987 6.20495 11.4808 5.46113 10.737C4.71732 9.9932 4.29945 8.98437 4.29945 7.93246C4.29945 6.88055 4.71732 5.87172 5.46113 5.12791C6.20495 4.3841 7.21377 3.96623 8.26568 3.96623ZM13.4218 3.76792C13.4218 4.0309 13.3173 4.2831 13.1314 4.46906C12.9454 4.65501 12.6932 4.75948 12.4302 4.75948C12.1672 4.75948 11.915 4.65501 11.7291 4.46906C11.5431 4.2831 11.4387 4.0309 11.4387 3.76792C11.4387 3.50494 11.5431 3.25273 11.7291 3.06678C11.915 2.88083 12.1672 2.77636 12.4302 2.77636C12.6932 2.77636 12.9454 2.88083 13.1314 3.06678C13.3173 3.25273 13.4218 3.50494 13.4218 3.76792ZM8.26568 1.58649C6.30319 1.58649 5.98272 1.59204 5.06969 1.6325C4.44779 1.66185 4.03054 1.74514 3.64344 1.89586C3.29917 2.02912 3.05088 2.18857 2.78673 2.45351C2.53845 2.69339 2.34755 2.98624 2.22829 3.31022C2.07757 3.69891 1.99428 4.11536 1.96572 4.73647C1.92447 5.61222 1.91971 5.91841 1.91971 7.93246C1.91971 9.89495 1.92527 10.2154 1.96572 11.1284C1.99507 11.7496 2.07836 12.1676 2.22829 12.5539C2.36314 12.899 2.52179 13.1473 2.78515 13.4106C3.05247 13.6771 3.30075 13.8366 3.64185 13.9683C4.03371 14.1198 4.45096 14.2039 5.06969 14.2324C5.94544 14.2737 6.25163 14.2784 8.26568 14.2784C10.2282 14.2784 10.5486 14.2729 11.4617 14.2324C12.082 14.2031 12.5 14.1198 12.8871 13.9699C13.2306 13.8358 13.4805 13.6764 13.7438 13.413C14.0112 13.1457 14.1706 12.8974 14.3023 12.5563C14.453 12.1652 14.5371 11.7472 14.5656 11.1284C14.6069 10.2527 14.6117 9.94651 14.6117 7.93246C14.6117 5.96997 14.6061 5.6495 14.5656 4.73647C14.5363 4.11615 14.453 3.69732 14.3023 3.31022C14.1827 2.98657 13.9922 2.69383 13.7446 2.45351C13.5049 2.2051 13.212 2.01418 12.8879 1.89506C12.4992 1.74435 12.082 1.66106 11.4617 1.6325C10.5859 1.59125 10.2797 1.58649 8.26568 1.58649ZM8.26568 0C10.4209 0 10.6898 0.00793241 11.5354 0.0475947C12.3802 0.087257 12.9554 0.219729 13.4614 0.416454C13.985 0.617939 14.426 0.890815 14.8671 1.33107C15.2704 1.72761 15.5825 2.20728 15.7817 2.7367C15.9776 3.242 16.1109 3.81789 16.1505 4.6627C16.1878 5.5083 16.1981 5.77721 16.1981 7.93246C16.1981 10.0877 16.1902 10.3566 16.1505 11.2022C16.1109 12.047 15.9776 12.6221 15.7817 13.1282C15.5831 13.6579 15.2709 14.1377 14.8671 14.5339C14.4704 14.9371 13.9908 15.2492 13.4614 15.4485C12.9561 15.6444 12.3802 15.7777 11.5354 15.8173C10.6898 15.8546 10.4209 15.8649 8.26568 15.8649C6.11043 15.8649 5.84152 15.857 4.99592 15.8173C4.15111 15.7777 3.57601 15.6444 3.06992 15.4485C2.54029 15.2497 2.06054 14.9376 1.66429 14.5339C1.26085 14.1374 0.948726 13.6577 0.749676 13.1282C0.552951 12.6229 0.420478 12.047 0.380816 11.2022C0.343534 10.3566 0.333221 10.0877 0.333221 7.93246C0.333221 5.77721 0.341154 5.5083 0.380816 4.6627C0.420478 3.8171 0.552951 3.24279 0.749676 2.7367C0.948174 2.20695 1.26037 1.72715 1.66429 1.33107C2.06065 0.927488 2.54037 0.615344 3.06992 0.416454C3.57601 0.219729 4.15032 0.087257 4.99592 0.0475947C5.84152 0.0103122 6.11043 0 8.26568 0Z" fill="#002940"/>
</svg>
