<svg width="30" height="40" viewBox="0 0 30 40" fill="none" xmlns="http://www.w3.org/2000/svg">
<path d="M0.568271 39.5992C0.145255 39.4024 0.000559341 39.0703 0.00530345 38.6042C0.0226985 36.8517 0.061442 35.0992 0.00530345 33.3466C-0.0966948 30.3649 1.27672 28.2881 3.7658 26.8511C5.38591 25.9158 7.15151 25.351 8.93134 24.8277C9.48482 24.6683 10.032 24.4915 10.5918 24.3441C10.8203 24.2836 10.8899 24.1713 10.8835 23.9402C10.8677 23.3866 10.8899 22.8314 10.8701 22.2777C10.8659 22.2061 10.8476 22.1361 10.816 22.0718C10.7845 22.0075 10.7405 21.9502 10.6867 21.9033C9.02622 20.7498 7.93982 19.1948 7.44485 17.2288C7.3903 17.0137 7.28672 16.9834 7.09616 16.9771C6.76487 16.9659 6.42566 16.9651 6.10623 16.8894C4.89411 16.6043 4.02119 15.5838 3.98324 14.3236C3.96268 13.6648 4.10817 13.002 4.1564 12.3392C4.18802 11.9035 4.18644 11.4629 4.18723 11.028C4.17501 9.42589 4.50818 7.84023 5.16373 6.38056C6.08037 4.3555 7.59006 2.66148 9.49009 1.52599C11.3901 0.390503 13.5895 -0.132089 15.7929 0.0283923C20.7884 0.404392 24.5735 4.0911 25.5246 8.43263C25.6891 9.18304 25.7468 9.95893 25.8172 10.7269C25.9137 11.7848 26.1177 12.861 26.0157 13.903C25.8781 15.3137 25.8749 16.7214 25.7982 18.1298C25.7405 19.1773 24.9142 19.9691 23.8682 20.0504C23.1044 20.1093 22.3334 20.0854 21.5665 20.0775C21.3237 20.0775 21.1838 20.1707 21.013 20.3388C20.4859 20.8619 19.9406 21.3645 19.3771 21.8467C19.2015 21.9965 19.1201 22.1264 19.1272 22.355C19.143 22.8704 19.1494 23.3906 19.1272 23.9012C19.1146 24.1713 19.2063 24.2748 19.4585 24.3529C21.0794 24.8635 22.7059 25.3566 24.3062 25.9254C25.492 26.3441 26.5963 26.9679 27.5694 27.7687C29.1839 29.1015 30.0007 30.8118 29.9944 32.9212C29.9881 34.8156 29.9833 36.7107 29.9999 38.605C30.0039 39.0703 29.8592 39.4016 29.437 39.6H9.70463C9.24683 39.2702 9.10292 38.9866 9.20966 38.6234C9.32905 38.2147 9.61291 38.0538 10.2154 38.053H11.607C11.9233 36.6629 12.1929 35.2872 12.5558 33.9369C12.793 33.0606 12.793 32.2306 12.4855 31.3798C12.3273 30.9432 12.2388 30.4796 12.1099 29.9953C11.8561 30.1665 11.656 30.3036 11.4536 30.4382C10.8393 30.8484 10.4218 30.7425 10.0842 30.0837C9.54491 29.0322 9.00777 27.9793 8.47274 26.9251C8.42135 26.8264 8.35889 26.7332 8.30117 26.6352C8.05289 26.7148 7.83308 26.7786 7.61564 26.8526C6.22008 27.3306 4.85615 27.8707 3.66222 28.7645C2.25401 29.8184 1.51709 31.2053 1.54319 32.9969C1.56612 34.5431 1.54793 36.0893 1.54793 37.6356V38.0522H2.30778C2.55052 38.0522 2.79405 38.0442 3.03679 38.0522C3.53729 38.0737 3.84724 38.4306 3.80771 38.9109C3.77766 39.2678 3.53018 39.4391 3.25897 39.596L0.568271 39.5992ZM8.76609 13.3007C8.76609 14.0822 8.71707 14.9083 8.77558 15.7264C8.9519 18.2301 10.1869 20.0687 12.4436 21.0987C14.7002 22.1287 16.8524 21.8101 18.8481 20.3404C18.9292 20.2876 19.0137 20.2405 19.1011 20.1994L19.0221 20.0823H18.6038C17.5039 20.0823 16.4041 20.0823 15.3043 20.0823C15.1256 20.087 14.9471 20.0691 14.7729 20.0289C14.6098 19.9793 14.4682 19.8755 14.3714 19.7343C14.2745 19.5931 14.2281 19.4229 14.2398 19.2517C14.2515 19.0804 14.3205 18.9183 14.4356 18.7917C14.5507 18.6652 14.705 18.5818 14.8733 18.5552C15.0132 18.5389 15.1541 18.5331 15.2948 18.5376C16.8927 18.5376 18.4915 18.5329 20.0895 18.5424C20.3267 18.5424 20.4777 18.4819 20.5639 18.2524C20.7299 17.7944 21.0098 17.3499 21.0541 16.8823C21.1743 15.6077 21.2012 14.3188 21.2486 13.0354C21.2526 12.9391 21.1482 12.8012 21.0557 12.7439C20.3741 12.3145 19.6941 11.8788 18.9904 11.4868C18.1365 11.0089 17.2509 10.9929 16.329 11.3339C14.8797 11.8692 13.4343 12.4316 11.9486 12.8411C10.9357 13.1167 9.8604 13.1517 8.76609 13.3007ZM17.8898 29.9977C17.6747 30.8102 17.4605 31.5749 17.2754 32.3461C17.2234 32.568 17.2191 32.7986 17.2628 33.0224C17.4446 33.9042 17.6526 34.7797 17.8534 35.6576C18.0353 36.4542 18.2195 37.2508 18.3974 38.0211H28.4518C28.4518 36.2128 28.4652 34.4364 28.4518 32.6567C28.4383 31.2818 27.888 30.1331 26.8815 29.2146C25.4013 27.8643 23.5685 27.2286 21.7001 26.6288C21.621 26.7778 21.5483 26.8988 21.485 27.0223C20.9545 28.0643 20.4295 29.1094 19.8934 30.1482C19.5993 30.7186 19.1565 30.8285 18.6236 30.4812C18.3871 30.3298 18.1563 30.1745 17.8898 29.9977ZM21.2407 11.0097C21.2407 10.8464 21.2407 10.7571 21.2407 10.6679C21.1016 7.45519 18.3982 4.79531 15.1975 4.72282C11.5319 4.63917 8.64353 7.59938 8.74395 11.3203C8.75186 11.6087 8.86176 11.6796 9.11083 11.6525C9.88412 11.5681 10.6875 11.5904 11.4252 11.3801C12.824 10.9796 14.2015 10.5074 15.5525 9.96531C17.1663 9.32085 18.671 9.46344 20.1385 10.3485C20.484 10.558 20.8327 10.7659 21.2407 11.0097ZM24.303 10.687C24.0714 7.1238 22.5137 4.36116 19.3881 2.68429C16.0491 0.891919 12.7116 1.1301 9.61133 3.31441C7.09933 5.08527 5.86586 7.6161 5.71721 10.6838L7.19816 10.5078C7.49388 6.28019 11.018 3.22838 14.8544 3.17899C16.6682 3.15509 18.3104 3.68643 19.744 4.80965C21.5894 6.25549 22.577 8.1809 22.7881 10.5078L24.303 10.687ZM16.8184 38.0378C16.48 36.5418 16.1519 35.0753 15.8095 33.6127C15.7867 33.5667 15.7533 33.527 15.7119 33.4969C15.6706 33.4668 15.6227 33.4472 15.5723 33.4398C15.139 33.4223 14.7025 33.4318 14.2337 33.4318C13.8858 34.9693 13.541 36.4916 13.1908 38.0378H16.8184ZM17.5965 22.7748C15.8482 23.3683 14.142 23.3476 12.4072 22.7844C12.4072 23.3045 12.3977 23.7666 12.4143 24.2278C12.4209 24.282 12.4383 24.3343 12.4655 24.3815C12.4927 24.4287 12.529 24.4699 12.5724 24.5026C13.3188 25.022 14.0692 25.5382 14.8306 26.0321C14.8871 26.059 14.949 26.0722 15.0114 26.0708C15.0739 26.0694 15.1351 26.0535 15.1904 26.0242C15.9297 25.5406 16.6579 25.0404 17.3838 24.5377C17.4707 24.4779 17.583 24.3744 17.5862 24.2868C17.6067 23.8032 17.5965 23.3189 17.5965 22.7748ZM14.9817 31.884C15.122 31.8738 15.263 31.8751 15.4031 31.888C15.7281 31.943 15.8554 31.7924 15.9147 31.4897C15.9882 31.1121 16.1076 30.7433 16.2025 30.3697C16.3092 29.9467 16.5899 29.4576 16.4666 29.1182C16.3432 28.7788 15.815 28.5924 15.4632 28.3399C15.3802 28.2802 15.3011 28.1941 15.2086 28.1734C15.0789 28.1447 14.9073 28.1137 14.8069 28.1734C14.4234 28.4036 14.0684 28.6825 13.6865 28.9167C13.492 29.0354 13.4762 29.1556 13.5347 29.3588C13.7023 29.9387 13.851 30.5258 14.002 31.1113C14.2044 31.884 14.2036 31.884 14.9817 31.884ZM11.1476 28.7773L13.628 27.0924C12.9441 26.6272 12.2925 26.1803 11.6355 25.7422C11.5608 25.6989 11.4724 25.6864 11.3888 25.7071C10.878 25.8537 10.3704 26.0122 9.82482 26.1787L11.1476 28.7773ZM16.3772 27.0924L18.8631 28.7749C19.3162 27.8819 19.7432 27.0406 20.182 26.1771C19.6427 26.013 19.1462 25.8585 18.6449 25.7143C18.5498 25.6902 18.4491 25.7036 18.3634 25.7517C17.7151 26.1811 17.0738 26.6216 16.3772 27.0924ZM7.195 12.1353C6.08804 11.9903 5.49265 12.5089 5.49107 13.5875C5.49107 13.7548 5.49107 13.9213 5.49107 14.0886C5.50926 15.0373 6.24143 15.5973 7.195 15.3743V12.1353ZM22.8134 15.3727C23.827 15.5766 24.5055 15.0333 24.5149 14.032C24.5149 13.8384 24.5149 13.6448 24.5149 13.4521C24.4991 12.489 23.793 11.9385 22.8134 12.1544V15.3727ZM24.2888 16.8655C23.7946 16.903 23.34 16.9285 22.8885 16.9779C22.7873 16.989 22.6371 17.0575 22.6086 17.1372C22.4505 17.5785 22.3263 18.0318 22.18 18.5129C22.7138 18.5129 23.2309 18.5352 23.7456 18.505C24.0816 18.4851 24.2667 18.2429 24.2849 17.9099C24.3015 17.5562 24.2888 17.1969 24.2888 16.8655Z" fill="#02328E"/>
</svg>
