<svg width="38" height="25" viewBox="0 0 38 25" fill="none" xmlns="http://www.w3.org/2000/svg">
<path d="M0 16.8925C0.0631834 16.6476 0.119969 16.4012 0.189551 16.1579C0.47609 15.1489 1.0714 14.2513 1.89453 13.5871C2.71765 12.923 3.72862 12.5245 4.78995 12.4459L5.07867 12.4207C4.11332 11.0445 4.1853 9.52503 4.46843 8.03941C4.81474 6.21999 6.58867 5.04142 8.48898 5.20911C10.2845 5.36657 11.7585 6.87265 11.8577 8.67318C11.8889 9.25578 11.8841 9.84231 11.8577 10.4249C11.8249 11.1421 11.5578 11.7916 11.1227 12.4128H15.2656C15.1544 12.2884 15.0752 12.201 14.9977 12.1129C14.1371 11.1453 13.6764 10.0124 13.6588 8.72121C13.6428 7.56547 13.6484 6.40894 13.6588 5.25241C13.6604 3.85782 14.2247 2.52097 15.2276 1.53595C16.2305 0.550934 17.5899 -0.0015627 19.0066 3.32001e-06C20.4234 0.00156934 21.7814 0.557071 22.7821 1.5443C23.7827 2.53153 24.344 3.86963 24.3424 5.26422C24.3488 6.21369 24.3152 7.16395 24.3496 8.11263C24.4088 9.74862 23.9497 11.1831 22.726 12.4049H26.8202C26.8202 12.3979 26.8378 12.3679 26.829 12.3546C25.8732 10.9374 25.9556 9.37308 26.3099 7.84495C26.7098 6.12866 28.4885 5.03354 30.2993 5.21147C31.1673 5.30394 31.9754 5.6918 32.584 6.30813C33.1926 6.92445 33.5635 7.73057 33.6328 8.58737C33.6728 9.14477 33.6616 9.70611 33.6544 10.2659C33.6448 11.0398 33.3921 11.742 32.9218 12.3986C33.2969 12.4593 33.6464 12.4963 33.9863 12.5726C35.1172 12.8243 36.1286 13.4447 36.8565 14.3331C37.5844 15.2215 37.9861 16.3259 37.9964 17.4672C38.0044 18.3435 37.9964 19.2197 37.9964 20.096C37.9964 20.7534 37.7461 21.0061 37.0831 21.0069C35.3267 21.01 33.5709 21.01 31.8157 21.0069H31.3174V21.5965C31.3174 22.4004 31.2974 23.2042 31.3254 24.0064C31.3406 24.4568 31.199 24.7843 30.7983 25H15.955C15.5151 24.7048 15.3648 24.4253 15.4615 24.0828C15.5703 23.701 15.8614 23.5396 16.4325 23.5388H17.8457C17.8448 23.4955 17.8392 23.4525 17.8289 23.4105C16.5333 20.3112 15.2333 17.2127 13.9292 14.1149C13.8932 14.0291 13.7044 13.9457 13.5964 13.9575C10.8955 14.2141 8.51377 16.4548 8.25144 19.1205C8.11067 20.555 8.19065 22.0114 8.17146 23.4577C8.17146 23.4774 8.19625 23.4971 8.22505 23.5412C8.64014 23.5412 9.07122 23.527 9.50471 23.5412C10.0366 23.5624 10.3917 24.0537 10.1821 24.5032C10.0918 24.6961 9.87981 24.8339 9.72305 24.9969H7.19811C6.79822 24.7819 6.65666 24.4536 6.67105 24.0033C6.69825 23.1278 6.67985 22.2508 6.67825 21.3745C6.67825 21.2588 6.66465 21.1431 6.65666 21.0037H6.21837C4.46283 21.0037 2.70649 20.9943 0.950951 21.0092C0.503868 21.0092 0.183952 20.8746 0 20.4676V16.8925ZM29.8242 23.5317C29.8242 22.1996 29.8738 20.8982 29.8138 19.6023C29.681 16.7279 27.3256 14.281 24.4552 13.9496C24.2153 13.922 24.1145 13.9772 24.0217 14.2C22.7644 17.2232 21.5005 20.2437 20.2299 23.2617C20.1963 23.3404 20.1771 23.4309 20.1499 23.5317H29.8242ZM15.1432 6.74747C15.1432 7.44974 15.1272 8.11657 15.1432 8.78262C15.1864 10.3572 16.2629 11.7468 17.8073 12.2467C19.3165 12.7372 21.0065 12.2215 22.0102 11.0067C23.0724 9.72815 22.8428 8.2323 22.846 6.74826C21.5585 6.73347 20.293 6.41718 19.1542 5.82556C19.1 5.80488 19.042 5.79546 18.9839 5.7979C18.9258 5.80034 18.8689 5.81458 18.8167 5.83973C17.6822 6.42369 16.4234 6.73477 15.1432 6.74747ZM36.5112 19.5315C36.5112 18.867 36.5112 18.2474 36.5112 17.6286C36.5008 15.4651 34.9117 13.9055 32.713 13.8984C31.3406 13.8945 29.9674 13.8984 28.5949 13.8984C28.4917 13.8984 28.3886 13.9071 28.2142 13.915C30.1089 15.3793 31.1142 17.2468 31.3166 19.5315H36.5112ZM9.78544 13.9087C8.08108 13.9087 6.46151 13.8551 4.84753 13.9236C3.26395 13.9913 1.86751 15.1833 1.59718 16.7161C1.43722 17.627 1.48841 18.5741 1.44362 19.526H6.68225C6.8822 17.2318 7.89393 15.3801 9.78544 13.9087ZM18.9982 22.3555C20.1979 19.4819 21.3632 16.7106 22.5341 13.9165H19.7388C19.7388 14.5039 19.7492 15.0723 19.7388 15.6407C19.7406 15.7384 19.7223 15.8355 19.685 15.9261C19.6477 16.0166 19.5922 16.0989 19.5219 16.1678C19.4515 16.2368 19.3677 16.2911 19.2755 16.3274C19.1834 16.3637 19.0847 16.3813 18.9854 16.3792C18.5855 16.3697 18.2848 16.0643 18.2656 15.6462C18.2576 15.5006 18.2656 15.3541 18.2656 15.2085V13.9157H15.4607L18.9982 22.3555ZM10.4125 9.54471H10.3821C10.3821 9.28963 10.3941 9.03376 10.3821 8.77947C10.3157 7.619 9.35435 6.69157 8.19705 6.66245C6.96458 6.63095 5.95124 7.47729 5.85127 8.67397C5.80274 9.26723 5.80462 9.86344 5.85687 10.4564C5.95204 11.5397 6.8822 12.3805 7.97711 12.4349C8.51777 12.4654 9.05157 12.3036 9.48116 11.979C9.91074 11.6544 10.2075 11.1886 10.3173 10.6666C10.3917 10.3005 10.3829 9.91947 10.4125 9.54471ZM27.5824 9.52346H27.6128C27.6128 9.77854 27.6024 10.0336 27.6128 10.2887C27.6408 10.8527 27.8827 11.3858 28.2907 11.7827C28.6986 12.1796 29.243 12.4115 29.8162 12.4325C31.0119 12.4648 32.0412 11.6051 32.1412 10.4336C32.192 9.82831 32.1904 9.2199 32.1364 8.61492C32.0444 7.56547 31.1222 6.71992 30.0761 6.66166C28.91 6.59631 27.9023 7.31275 27.6767 8.39999C27.6056 8.76766 27.6128 9.14949 27.5824 9.52346ZM22.8636 5.28075C22.794 3.83686 22.195 2.72836 20.9649 2.01822C19.6117 1.23723 18.2208 1.26793 16.9004 2.10167C15.7535 2.82598 15.192 3.90142 15.1408 5.27681C16.3165 5.27052 17.3802 5.00205 18.34 4.41079C18.8135 4.11635 19.2038 4.12816 19.67 4.41552C20.6194 4.99969 21.6743 5.26186 22.8612 5.28075H22.8636Z" fill="#A90000"/>
</svg>
