<svg width="14" height="15" viewBox="0 0 14 15" fill="none" xmlns="http://www.w3.org/2000/svg">
<path d="M6.86079 5.59238C7.58819 4.84911 8.53533 4.36285 9.63715 4.36285C10.7942 4.36285 11.904 4.82251 12.7221 5.6407C13.5403 6.45889 14 7.5686 14 8.7257V14.675H12.4135V8.7257C12.4135 7.98937 12.121 7.28319 11.6003 6.76252C11.0797 6.24185 10.3735 5.94934 9.63715 5.94934C8.90081 5.94934 8.19463 6.24185 7.67396 6.76252C7.15329 7.28319 6.86079 7.98937 6.86079 8.7257V14.675H5.27429V4.75947H6.86079V5.59238ZM1.30806 3.17298C0.992491 3.17298 0.689843 3.04762 0.466699 2.82448C0.243555 2.60133 0.118195 2.29869 0.118195 1.98311C0.118195 1.66754 0.243555 1.36489 0.466699 1.14175C0.689843 0.918604 0.992491 0.793243 1.30806 0.793243C1.62364 0.793243 1.92628 0.918604 2.14943 1.14175C2.37257 1.36489 2.49793 1.66754 2.49793 1.98311C2.49793 2.29869 2.37257 2.60133 2.14943 2.82448C1.92628 3.04762 1.62364 3.17298 1.30806 3.17298ZM0.514818 4.75947H2.10131V14.675H0.514818V4.75947Z" fill="#002940"/>
</svg>
