<svg width="399" height="399" viewBox="0 0 399 399" fill="none" xmlns="http://www.w3.org/2000/svg">
<path d="M336.213 70.4315C321.921 55.7882 305.546 43.6107 288.142 35.112C261.64 22.0966 232.449 15.8403 203.251 15.4652C117.928 14.364 111.441 119.413 85.2025 134.016C58.9642 148.62 11.4273 150.335 9.78347 208.749C8.75405 245.457 16.9655 283.266 39.9558 311.89C61.031 338.113 92.0014 351.399 122.517 361.215C156.775 372.243 193.116 383.04 229.154 375.619C266.141 367.982 292.124 337.315 322.52 316.567C341.672 303.511 358.805 289.762 370.615 268.806C372.028 266.309 373.352 263.747 374.605 261.154C390.414 228.603 393.51 191.049 384.796 155.817C376.959 124.193 359.3 94.0842 336.213 70.4315Z" fill="#92E3A9"/>
<path opacity="0.7" d="M335.915 70.6423C321.623 55.9991 305.248 43.8216 287.844 35.3229C261.342 22.3075 232.152 16.0512 202.953 15.6761C117.631 14.5749 111.143 119.624 84.9046 134.227C58.6663 148.83 11.1295 150.546 9.48559 208.96C8.45617 245.668 16.6676 283.477 39.658 312.101C60.7331 338.323 91.7035 351.61 122.219 361.426C156.477 372.454 192.818 383.251 228.856 375.829C265.843 368.193 291.826 337.525 322.222 316.777C341.374 303.722 358.507 289.973 370.317 269.017C371.73 266.519 373.054 263.958 374.307 261.364C390.116 228.814 393.212 191.26 384.498 156.028C376.661 124.404 359.002 94.2951 335.915 70.6423Z" fill="#3572E8"/>
<path d="M18.9286 269.979L27.0043 347.401" stroke="#263238" stroke-miterlimit="10"/>
<path d="M25.7036 332.582L22.0408 328.712" stroke="#263238" stroke-miterlimit="10"/>
<path d="M23.142 329.877C23.1351 329.285 23.0019 328.701 22.7515 328.165C22.501 327.628 22.139 327.151 21.6896 326.765C20.748 325.927 15.8004 323.844 15.3056 325.584C14.8268 327.483 19.8941 331.17 23.142 329.877Z" fill="#D5E3FF" stroke="#263238" stroke-miterlimit="10"/>
<path d="M23.15 329.877L18.4418 326.941" stroke="#263238" stroke-width="0.5" stroke-miterlimit="10"/>
<path d="M26.6213 341.384L22.9585 337.522" stroke="#263238" stroke-miterlimit="10"/>
<path d="M24.0677 338.679C24.0632 338.088 23.9312 337.504 23.6805 336.968C23.4299 336.433 23.0665 335.957 22.6153 335.575C21.6737 334.729 16.7261 332.646 16.2313 334.394C15.7445 336.285 20.8118 340.012 24.0677 338.679Z" fill="#D5E3FF" stroke="#263238" stroke-miterlimit="10"/>
<path d="M24.0677 338.679L19.3595 335.743" stroke="#263238" stroke-width="0.5" stroke-miterlimit="10"/>
<path d="M23.4612 311.1L19.7984 307.23" stroke="#263238" stroke-miterlimit="10"/>
<path d="M20.9076 308.387C20.9 307.796 20.7666 307.214 20.5162 306.678C20.2657 306.143 19.904 305.667 19.4552 305.283C18.5136 304.437 13.566 302.362 13.0712 304.102C12.5845 305.993 17.6518 309.72 20.9076 308.387Z" fill="#D5E3FF" stroke="#263238" stroke-miterlimit="10"/>
<path d="M20.9076 308.387L16.1994 305.451" stroke="#263238" stroke-width="0.5" stroke-miterlimit="10"/>
<path d="M24.3789 319.902L20.7161 316.032" stroke="#263238" stroke-miterlimit="10"/>
<path d="M21.8253 317.189C21.8203 316.598 21.688 316.014 21.4374 315.479C21.1868 314.943 20.8237 314.468 20.3729 314.085C19.4313 313.287 14.4837 311.164 13.9889 312.904C13.5022 314.803 18.5695 318.522 21.8253 317.189Z" fill="#D5E3FF" stroke="#263238" stroke-miterlimit="10"/>
<path d="M21.8253 317.189L17.1171 314.26" stroke="#263238" stroke-width="0.5" stroke-miterlimit="10"/>
<path d="M21.9689 296.792L18.3061 292.922" stroke="#263238" stroke-miterlimit="10"/>
<path d="M19.4153 294.087C19.4084 293.495 19.2753 292.911 19.0248 292.374C18.7744 291.838 18.4124 291.36 17.963 290.975C17.0213 290.137 12.0737 288.054 11.579 289.802C11.0922 291.693 16.1515 295.42 19.4153 294.087Z" fill="#D5E3FF" stroke="#263238" stroke-miterlimit="10"/>
<path d="M19.4153 294.087L14.7071 291.15" stroke="#263238" stroke-width="0.5" stroke-miterlimit="10"/>
<path d="M20.4687 282.428L16.8059 278.558" stroke="#263238" stroke-miterlimit="10"/>
<path d="M17.9151 279.715C17.9075 279.124 17.7741 278.542 17.5237 278.006C17.2732 277.471 16.9115 276.995 16.4627 276.611C15.5211 275.773 10.5735 273.69 10.0787 275.43C9.576 277.329 14.6593 281.048 17.9151 279.715Z" fill="#D5E3FF" stroke="#263238" stroke-miterlimit="10"/>
<path d="M17.9151 279.715L13.2069 276.786" stroke="#263238" stroke-width="0.5" stroke-miterlimit="10"/>
<path d="M25.0891 327.372L27.8741 322.831" stroke="#263238" stroke-miterlimit="10"/>
<path d="M27.0203 324.196C26.9067 323.614 26.9191 323.014 27.0568 322.437C27.1944 321.86 27.4541 321.32 27.8183 320.852C28.5604 319.838 32.9734 316.782 33.7953 318.386C34.6731 320.134 30.4916 324.826 27.0203 324.196Z" fill="#D5E3FF" stroke="#263238" stroke-miterlimit="10"/>
<path d="M27.0203 324.195L31.2656 320.142" stroke="#263238" stroke-width="0.5" stroke-miterlimit="10"/>
<path d="M22.6712 304.206L25.4562 299.657" stroke="#263238" stroke-miterlimit="10"/>
<path d="M24.6023 301.022C24.4889 300.441 24.5014 299.843 24.6391 299.267C24.7767 298.692 25.0363 298.152 25.4003 297.686C26.1425 296.665 30.5554 293.608 31.3774 295.22C32.2552 296.968 28.0736 301.644 24.6023 301.022Z" fill="#D5E3FF" stroke="#263238" stroke-miterlimit="10"/>
<path d="M24.6023 301.022L28.8477 296.968" stroke="#263238" stroke-width="0.5" stroke-miterlimit="10"/>
<path d="M21.6019 294.023L24.3949 289.474" stroke="#263238" stroke-miterlimit="10"/>
<path d="M23.541 290.839C23.4281 290.258 23.4408 289.66 23.5785 289.085C23.7161 288.509 23.9755 287.97 24.339 287.503C25.0891 286.482 29.5021 283.426 30.316 285.038C31.1938 286.785 27.0043 291.47 23.541 290.839Z" fill="#92E3A9" stroke="#263238" stroke-miterlimit="10"/>
<path d="M23.541 290.839L27.7864 286.785" stroke="#263238" stroke-width="0.5" stroke-miterlimit="10"/>
<path d="M20.0458 279.093L22.8308 274.552" stroke="#263238" stroke-miterlimit="10"/>
<path d="M21.9849 275.917C21.8723 275.335 21.8853 274.735 22.0229 274.159C22.1605 273.582 22.4196 273.041 22.7829 272.573C23.533 271.559 27.946 268.495 28.7599 270.107C29.6377 271.855 25.4482 276.547 21.9849 275.917Z" fill="#D5E3FF" stroke="#263238" stroke-miterlimit="10"/>
<path d="M21.9849 275.917L26.2223 271.863" stroke="#263238" stroke-width="0.5" stroke-miterlimit="10"/>
<path d="M18.8567 269.548C18.7442 268.966 18.7571 268.367 18.8948 267.79C19.0324 267.214 19.2915 266.673 19.6547 266.205C20.4049 265.191 24.8178 262.135 25.6318 263.739C26.5096 265.487 22.344 270.179 18.8567 269.548Z" fill="#D5E3FF" stroke="#263238" stroke-miterlimit="10"/>
<path d="M18.8567 269.548L23.1021 265.495" stroke="#263238" stroke-width="0.5" stroke-miterlimit="10"/>
<path d="M19.1041 269.724C18.5145 269.777 17.9203 269.704 17.3615 269.508C16.8027 269.313 16.2922 269 15.8642 268.591C14.9306 267.745 12.353 263.005 14.0368 262.39C15.8722 261.688 20.0936 266.34 19.1041 269.724Z" fill="#D5E3FF" stroke="#263238" stroke-miterlimit="10"/>
<path d="M19.1041 269.724L15.5131 265.08" stroke="#263238" stroke-width="0.5" stroke-miterlimit="10"/>
<path d="M40.2352 280.641L32.1993 358.071" stroke="#263238" stroke-miterlimit="10"/>
<path d="M33.9788 343.3L31.1938 338.759" stroke="#263238" stroke-miterlimit="10"/>
<path d="M32.0397 340.124C32.1533 339.542 32.1409 338.942 32.0032 338.365C31.8656 337.789 31.6059 337.248 31.2417 336.78C30.4996 335.767 26.0866 332.71 25.2647 334.322C24.3869 336.07 28.5764 340.746 32.0397 340.124Z" fill="#D5E3FF" stroke="#263238" stroke-miterlimit="10"/>
<path d="M32.0397 340.124L28.0337 336.277" stroke="#263238" stroke-width="0.5" stroke-miterlimit="10"/>
<path d="M36.2053 321.809L33.4202 317.269" stroke="#263238" stroke-miterlimit="10"/>
<path d="M34.2661 318.633C34.3791 318.053 34.3663 317.455 34.2286 316.879C34.091 316.304 33.8317 315.765 33.4681 315.298C32.718 314.276 28.321 311.22 27.5071 312.816C26.6133 314.58 30.8028 319.264 34.2661 318.633Z" fill="#D5E3FF" stroke="#263238" stroke-miterlimit="10"/>
<path d="M34.2661 318.633L30.2681 314.795" stroke="#263238" stroke-width="0.5" stroke-miterlimit="10"/>
<path d="M35.2955 330.619L32.5025 326.079" stroke="#263238" stroke-miterlimit="10"/>
<path d="M33.3564 327.443C33.47 326.861 33.4576 326.262 33.3199 325.685C33.1823 325.108 32.9226 324.568 32.5584 324.1C31.8163 323.086 27.4033 320.03 26.5814 321.642C25.7036 323.39 29.8931 328.074 33.3564 327.443Z" fill="#D5E3FF" stroke="#263238" stroke-miterlimit="10"/>
<path d="M33.3564 327.443L29.3504 323.597" stroke="#263238" stroke-width="0.5" stroke-miterlimit="10"/>
<path d="M37.6895 307.509L34.9045 302.969" stroke="#263238" stroke-miterlimit="10"/>
<path d="M35.7504 304.333C35.863 303.751 35.85 303.152 35.7124 302.575C35.5748 301.999 35.3157 301.458 34.9524 300.99C34.2023 299.976 29.7893 296.92 28.9754 298.532C28.0976 300.279 32.2871 304.964 35.7504 304.333Z" fill="#D5E3FF" stroke="#263238" stroke-miterlimit="10"/>
<path d="M35.7504 304.333L31.7524 300.487" stroke="#263238" stroke-width="0.5" stroke-miterlimit="10"/>
<path d="M39.1818 293.137L36.3968 288.605" stroke="#263238" stroke-miterlimit="10"/>
<path d="M37.2427 289.961C37.3556 289.381 37.3428 288.782 37.2052 288.207C37.0675 287.632 36.8082 287.092 36.4447 286.626C35.6945 285.612 31.2816 282.556 30.4597 284.16C29.5898 285.907 33.7793 290.6 37.2427 289.961Z" fill="#D5E3FF" stroke="#263238" stroke-miterlimit="10"/>
<path d="M37.2426 289.961L33.2367 286.123" stroke="#263238" stroke-width="0.5" stroke-miterlimit="10"/>
<path d="M34.4496 338.073L38.1125 334.202" stroke="#263238" stroke-miterlimit="10"/>
<path d="M36.9953 335.36C37.0033 334.768 37.1378 334.185 37.3896 333.649C37.6415 333.114 38.005 332.639 38.4556 332.255C39.3893 331.417 44.3369 329.335 44.8396 331.074C45.3184 332.966 40.2591 336.692 36.9953 335.36Z" fill="#D5E3FF" stroke="#263238" stroke-miterlimit="10"/>
<path d="M36.9953 335.359L41.9828 332.271" stroke="#263238" stroke-width="0.5" stroke-miterlimit="10"/>
<path d="M36.8516 314.899L40.5145 311.029" stroke="#263238" stroke-miterlimit="10"/>
<path d="M39.3973 312.194C39.4047 311.601 39.5388 311.016 39.7907 310.479C40.0426 309.943 40.4063 309.466 40.8576 309.081C41.7992 308.243 46.7468 306.161 47.2416 307.9C47.7284 309.8 42.6611 313.518 39.3973 312.194Z" fill="#D5E3FF" stroke="#263238" stroke-miterlimit="10"/>
<path d="M39.3973 312.194L44.3848 309.097" stroke="#263238" stroke-width="0.5" stroke-miterlimit="10"/>
<path d="M37.913 304.716L41.5678 300.846" stroke="#263238" stroke-miterlimit="10"/>
<path d="M40.4586 302.011C40.4655 301.419 40.5987 300.835 40.8491 300.298C41.0996 299.762 41.4616 299.285 41.911 298.899C42.8526 298.061 47.8002 295.978 48.295 297.718C48.7817 299.609 43.7224 303.336 40.4586 302.011Z" fill="#D5E3FF" stroke="#263238" stroke-miterlimit="10"/>
<path d="M40.4586 302.011L45.4461 298.915" stroke="#263238" stroke-width="0.5" stroke-miterlimit="10"/>
<path d="M39.4611 289.794L43.1159 285.915" stroke="#263238" stroke-miterlimit="10"/>
<path d="M42.0067 287.081C42.0137 286.488 42.1468 285.904 42.3972 285.368C42.6477 284.831 43.0097 284.354 43.4591 283.968C44.4007 283.13 49.3483 281.048 49.8431 282.787C50.3299 284.687 45.2705 288.413 42.0067 287.081Z" fill="#D5E3FF" stroke="#263238" stroke-miterlimit="10"/>
<path d="M42.0067 287.081L46.9942 283.984" stroke="#263238" stroke-width="0.5" stroke-miterlimit="10"/>
<path d="M40.2591 280.202C40.2667 279.611 40.4001 279.028 40.6505 278.493C40.901 277.958 41.2627 277.482 41.7115 277.097C42.6531 276.26 47.6007 274.169 48.0954 275.916C48.5822 277.808 43.5229 281.534 40.2591 280.202Z" fill="#D5E3FF" stroke="#263238" stroke-miterlimit="10"/>
<path d="M40.2591 280.202L45.2466 277.114" stroke="#263238" stroke-width="0.5" stroke-miterlimit="10"/>
<path d="M40.4586 280.425C39.8682 280.359 39.2989 280.166 38.7895 279.861C38.28 279.555 37.8423 279.143 37.506 278.654C36.7718 277.632 35.2157 272.493 36.9953 272.206C38.9504 271.895 42.1264 277.321 40.4586 280.425Z" fill="#D5E3FF" stroke="#263238" stroke-miterlimit="10"/>
<path d="M40.4586 280.425L37.905 275.142" stroke="#263238" stroke-width="0.5" stroke-miterlimit="10"/>
<path d="M31.0262 249.112V347.026" stroke="#263238" stroke-miterlimit="10"/>
<path d="M31.106 332.303L27.8662 328.074" stroke="#263238" stroke-miterlimit="10"/>
<path d="M28.8477 329.343C28.9035 328.753 28.8319 328.159 28.6377 327.6C28.4436 327.041 28.1315 326.53 27.7225 326.103C26.8766 325.169 22.1365 322.584 21.5221 324.267C20.8198 326.103 25.4722 330.324 28.8477 329.343Z" fill="#D5E3FF" stroke="#263238" stroke-miterlimit="10"/>
<path d="M28.8477 329.343L24.4747 325.935" stroke="#263238" stroke-width="0.5" stroke-miterlimit="10"/>
<path d="M31.106 313.901L27.8662 309.672" stroke="#263238" stroke-miterlimit="10"/>
<path d="M28.8477 310.941C28.9035 310.352 28.8319 309.757 28.6377 309.198C28.4436 308.639 28.1315 308.129 27.7225 307.701C26.8766 306.767 22.1365 304.182 21.5221 305.865C20.8198 307.701 25.4722 311.93 28.8477 310.941Z" fill="#D5E3FF" stroke="#263238" stroke-miterlimit="10"/>
<path d="M28.8477 310.941L24.4747 307.533" stroke="#263238" stroke-width="0.5" stroke-miterlimit="10"/>
<path d="M31.106 292.299L27.8662 288.07" stroke="#263238" stroke-miterlimit="10"/>
<path d="M28.8477 289.339C28.9035 288.75 28.8319 288.156 28.6377 287.597C28.4436 287.038 28.1315 286.527 27.7225 286.099C26.8766 285.165 22.1365 282.58 21.5221 284.264C20.8198 286.099 25.4722 290.328 28.8477 289.339Z" fill="#D5E3FF" stroke="#263238" stroke-miterlimit="10"/>
<path d="M28.8477 289.339L24.4747 285.931" stroke="#263238" stroke-width="0.5" stroke-miterlimit="10"/>
<path d="M31.106 277.919L27.8662 273.69" stroke="#263238" stroke-miterlimit="10"/>
<path d="M28.8477 274.959C28.9035 274.37 28.8319 273.776 28.6377 273.217C28.4436 272.657 28.1315 272.147 27.7225 271.719C26.8766 270.785 22.1365 268.2 21.5221 269.884C20.8198 271.719 25.4722 275.94 28.8477 274.959Z" fill="#D5E3FF" stroke="#263238" stroke-miterlimit="10"/>
<path d="M28.8477 274.959L24.4747 271.551" stroke="#263238" stroke-width="0.5" stroke-miterlimit="10"/>
<path d="M31.106 263.476L27.8662 259.246" stroke="#263238" stroke-miterlimit="10"/>
<path d="M28.8477 260.515C28.9035 259.926 28.8319 259.332 28.6377 258.773C28.4436 258.214 28.1315 257.703 27.7225 257.275C26.8766 256.342 22.1365 253.756 21.5221 255.44C20.8198 257.275 25.4722 261.497 28.8477 260.515Z" fill="#D5E3FF" stroke="#263238" stroke-miterlimit="10"/>
<path d="M28.8477 260.515L24.4747 257.108" stroke="#263238" stroke-width="0.5" stroke-miterlimit="10"/>
<path d="M31.0342 337.921L34.2741 333.692" stroke="#263238" stroke-miterlimit="10"/>
<path d="M33.2926 334.961C33.2368 334.371 33.3084 333.777 33.5025 333.218C33.6967 332.659 34.0088 332.148 34.4177 331.721C35.2636 330.787 40.0037 328.202 40.6182 329.885C41.3204 331.721 36.708 335.958 33.2926 334.961Z" fill="#D5E3FF" stroke="#263238" stroke-miterlimit="10"/>
<path d="M33.2926 334.961L37.9289 331.37" stroke="#263238" stroke-width="0.5" stroke-miterlimit="10"/>
<path d="M31.0342 308.658L34.2741 304.429" stroke="#263238" stroke-miterlimit="10"/>
<path d="M33.2926 305.698C33.2344 305.106 33.3049 304.509 33.4991 303.947C33.6933 303.385 34.0067 302.872 34.4177 302.442C35.2636 301.508 40.0038 298.923 40.6182 300.607C41.3205 302.442 36.708 306.679 33.2926 305.698Z" fill="#D5E3FF" stroke="#263238" stroke-miterlimit="10"/>
<path d="M33.2926 305.698L37.9289 302.107" stroke="#263238" stroke-width="0.5" stroke-miterlimit="10"/>
<path d="M31.0342 294.215L34.2741 289.985" stroke="#263238" stroke-miterlimit="10"/>
<path d="M33.2926 291.27C33.2368 290.681 33.3084 290.087 33.5025 289.528C33.6967 288.969 34.0088 288.458 34.4177 288.03C35.2636 287.097 40.0037 284.511 40.6182 286.195C41.3204 288.014 36.708 292.236 33.2926 291.27Z" fill="#D5E3FF" stroke="#263238" stroke-miterlimit="10"/>
<path d="M33.2926 291.254L37.9289 287.663" stroke="#263238" stroke-width="0.5" stroke-miterlimit="10"/>
<path d="M31.0342 275.119L34.2741 270.889" stroke="#263238" stroke-miterlimit="10"/>
<path d="M33.2926 272.158C33.238 271.57 33.3101 270.977 33.5042 270.42C33.6984 269.862 34.0099 269.353 34.4177 268.926C35.2636 267.992 40.0037 265.407 40.6182 267.099C41.3204 268.926 36.708 273.147 33.2926 272.158Z" fill="#D5E3FF" stroke="#263238" stroke-miterlimit="10"/>
<path d="M33.2926 272.158L37.9289 268.567" stroke="#263238" stroke-width="0.5" stroke-miterlimit="10"/>
<path d="M31.0342 260.108L34.2741 255.887" stroke="#263238" stroke-miterlimit="10"/>
<path d="M33.2926 257.156C33.2367 256.565 33.3082 255.97 33.5023 255.409C33.6964 254.849 34.0086 254.337 34.4177 253.908C35.2636 252.974 40.0037 250.396 40.6182 252.08C41.3204 253.908 36.708 258.137 33.2926 257.156Z" fill="#D5E3FF" stroke="#263238" stroke-miterlimit="10"/>
<path d="M33.2926 257.156L37.9289 253.557" stroke="#263238" stroke-width="0.5" stroke-miterlimit="10"/>
<path d="M30.8427 250.492C30.7869 249.903 30.8585 249.309 31.0527 248.75C31.2468 248.191 31.5589 247.68 31.9679 247.252C32.8138 246.319 37.5539 243.733 38.1683 245.425C38.8706 247.252 34.2262 251.482 30.8427 250.492Z" fill="#D5E3FF" stroke="#263238" stroke-miterlimit="10"/>
<path d="M30.8427 250.492L35.4791 246.901" stroke="#263238" stroke-width="0.5" stroke-miterlimit="10"/>
<path d="M31.0662 250.692C30.4691 250.688 29.8799 250.556 29.3386 250.304C28.7974 250.052 28.3169 249.686 27.93 249.231C27.132 248.29 25.0173 243.342 26.757 242.847C28.728 242.369 32.4068 247.436 31.0662 250.692Z" fill="#D5E3FF" stroke="#263238" stroke-miterlimit="10"/>
<path d="M31.0661 250.692L27.9779 245.704" stroke="#263238" stroke-width="0.5" stroke-miterlimit="10"/>
<path d="M35.0561 372.419H24.6901L23.3894 346.228H36.3489L35.0561 372.419Z" fill="#263238" stroke="#263238" stroke-miterlimit="10"/>
<g opacity="0.3">
<path opacity="0.3" d="M243.685 33.0931H218.253V43.4272H243.685V33.0931Z" stroke="black" stroke-linejoin="round"/>
<path opacity="0.3" d="M277.058 33.0931H251.625V43.4272H277.058V33.0931Z" stroke="black" stroke-linejoin="round"/>
<path opacity="0.3" d="M259.581 50.5772H234.149V60.9113H259.581V50.5772Z" stroke="black" stroke-linejoin="round"/>
<path opacity="0.3" d="M243.685 175.712H218.253V186.046H243.685V175.712Z" stroke="black" stroke-linejoin="round"/>
<path opacity="0.3" d="M277.058 175.712H251.625V186.046H277.058V175.712Z" stroke="black" stroke-linejoin="round"/>
<path opacity="0.3" d="M259.581 193.188H234.149V203.522H259.581V193.188Z" stroke="black" stroke-linejoin="round"/>
<path opacity="0.3" d="M320.764 51.3752H295.332V61.7093H320.764V51.3752Z" stroke="black" stroke-linejoin="round"/>
<path opacity="0.3" d="M354.144 51.3752H328.712V61.7093H354.144V51.3752Z" stroke="black" stroke-linejoin="round"/>
<path opacity="0.3" d="M336.66 68.8594H311.228V79.1935H336.66V68.8594Z" stroke="black" stroke-linejoin="round"/>
<path opacity="0.3" d="M320.764 146.736H295.332V157.07H320.764V146.736Z" stroke="black" stroke-linejoin="round"/>
<path opacity="0.3" d="M354.144 146.736H328.712V157.07H354.144V146.736Z" stroke="black" stroke-linejoin="round"/>
<path opacity="0.3" d="M336.66 164.212H311.228V174.547H336.66V164.212Z" stroke="black" stroke-linejoin="round"/>
<path opacity="0.3" d="M95.0817 87.9316H69.6494V98.2657H95.0817V87.9316Z" stroke="black" stroke-linejoin="round"/>
<path opacity="0.3" d="M128.462 87.9316H103.03V98.2657H128.462V87.9316Z" stroke="black" stroke-linejoin="round"/>
<path opacity="0.3" d="M110.978 105.408H85.5456V115.742H110.978V105.408Z" stroke="black" stroke-linejoin="round"/>
<path opacity="0.3" d="M155.474 37.8651H130.042V48.1992H155.474V37.8651Z" stroke="black" stroke-linejoin="round"/>
<path opacity="0.3" d="M137.998 55.3493H112.566V65.6834H137.998V55.3493Z" stroke="black" stroke-linejoin="round"/>
<path opacity="0.3" d="M322.352 289.77H296.92V300.104H322.352V289.77Z" stroke="black" stroke-linejoin="round"/>
<path opacity="0.3" d="M304.876 307.254H279.444V317.588H304.876V307.254Z" stroke="black" stroke-linejoin="round"/>
<path opacity="0.3" d="M263.548 100.644H238.115V110.978H263.548V100.644Z" stroke="black" stroke-linejoin="round"/>
<path opacity="0.3" d="M46.6112 123.69H21.1789V134.024H46.6112V123.69Z" stroke="black" stroke-linejoin="round"/>
<path opacity="0.3" d="M153.096 289.77H127.664V300.104H153.096V289.77Z" stroke="black" stroke-linejoin="round"/>
<path opacity="0.3" d="M135.612 307.254H110.18V317.588H135.612V307.254Z" stroke="black" stroke-linejoin="round"/>
<path opacity="0.3" d="M174.547 87.9316H149.114V98.2657H174.547V87.9316Z" stroke="black" stroke-linejoin="round"/>
<path opacity="0.3" d="M207.927 87.9316H182.495V98.2657H207.927V87.9316Z" stroke="black" stroke-linejoin="round"/>
<path opacity="0.3" d="M190.443 105.408H165.01V115.742H190.443V105.408Z" stroke="black" stroke-linejoin="round"/>
<path opacity="0.3" d="M354.144 186.469H328.712V196.803H354.144V186.469Z" stroke="black" stroke-linejoin="round"/>
<path opacity="0.3" d="M387.517 186.469H362.085V196.803H387.517V186.469Z" stroke="black" stroke-linejoin="round"/>
<path opacity="0.3" d="M370.033 203.945H344.6V214.279H370.033V203.945Z" stroke="black" stroke-linejoin="round"/>
<path opacity="0.3" d="M50.5852 249.247H25.153V259.581H50.5852V249.247Z" stroke="black" stroke-linejoin="round"/>
<path opacity="0.3" d="M83.9576 249.247H58.5253V259.581H83.9576V249.247Z" stroke="black" stroke-linejoin="round"/>
<path opacity="0.3" d="M66.4734 266.724H41.0411V277.058H66.4734V266.724Z" stroke="black" stroke-linejoin="round"/>
</g>
<path d="M316.176 281.391C316.176 281.391 320.429 293.888 320.964 304.262C321.498 314.636 324.69 350.817 324.69 350.817C324.69 350.817 317.772 361.989 314.045 364.111C310.318 366.234 302.953 368.453 306.065 371.565C307.661 373.161 329.662 372.076 335.894 371.669C336.331 371.642 336.741 371.448 337.038 371.127C337.335 370.806 337.497 370.382 337.49 369.945C337.49 368.764 337.49 367.16 337.49 365.955C337.49 363.824 337.753 357.44 337.753 356.642C337.753 355.844 334.298 349.995 334.298 349.995C334.298 349.995 342.278 319.4 342.805 309.026C343.331 298.652 340.147 293.864 340.147 292.268C340.147 290.672 339.884 280.034 339.884 280.034L316.176 281.391Z" fill="white" stroke="#263238" stroke-linejoin="round"/>
<path d="M337.49 369.945C337.49 368.764 337.49 367.16 337.49 365.955C337.49 364.558 337.602 361.35 337.682 359.076C337.227 359.132 336.732 359.204 336.213 359.284C333.069 359.754 323.94 364.87 318.035 368.062C313.758 370.336 308.132 370.16 305.363 369.889C305.346 370.206 305.403 370.523 305.531 370.814C305.658 371.105 305.852 371.362 306.097 371.565C307.693 373.161 329.694 372.075 335.926 371.669C336.357 371.634 336.759 371.437 337.049 371.116C337.34 370.796 337.498 370.377 337.49 369.945Z" fill="white" stroke="#263238" stroke-linejoin="round"/>
<path d="M335.75 352.612C330.779 356.315 321.051 363.369 317.907 364.351C316.405 364.918 314.761 364.99 313.215 364.558C309.632 366.41 304.078 368.357 305.57 370.942C308.874 371.038 315.146 370.942 319.527 369.211C325.712 366.737 329.518 364.072 333.891 362.26C335.08 361.756 336.304 361.34 337.554 361.015C337.626 358.98 337.698 357.081 337.698 356.666C337.698 356.251 336.692 354.312 335.75 352.612Z" fill="#263238" stroke="#263238" stroke-linejoin="round"/>
<path d="M331.074 281.391C331.074 281.391 335.328 293.888 335.862 304.262C336.397 314.636 339.581 350.817 339.581 350.817C339.581 350.817 332.67 361.989 328.944 364.111C325.217 366.234 317.851 368.453 320.964 371.565C322.56 373.161 344.552 372.076 350.793 371.669C351.23 371.644 351.641 371.45 351.939 371.129C352.236 370.807 352.398 370.383 352.389 369.945C352.389 368.764 352.389 367.16 352.389 365.955C352.389 363.824 352.66 357.44 352.66 356.642C352.66 355.844 349.197 349.995 349.197 349.995C349.197 349.995 357.177 319.4 357.711 309.026C358.246 298.652 355.054 293.864 355.054 292.268C355.054 290.672 354.783 280.034 354.783 280.034L331.074 281.391Z" fill="white" stroke="#263238" stroke-linejoin="round"/>
<path d="M352.381 369.945C352.381 368.764 352.381 367.16 352.381 365.955C352.381 364.558 352.493 361.35 352.572 359.076C352.118 359.132 351.631 359.204 351.112 359.284C347.968 359.754 338.831 364.87 332.934 368.062C328.656 370.336 323.03 370.16 320.261 369.889C320.242 370.206 320.299 370.524 320.427 370.815C320.554 371.107 320.749 371.363 320.996 371.565C322.592 373.161 344.584 372.075 350.825 371.669C351.255 371.634 351.656 371.436 351.945 371.116C352.235 370.795 352.39 370.376 352.381 369.945Z" fill="white" stroke="#263238" stroke-linejoin="round"/>
<path d="M350.649 352.612C345.678 356.315 335.942 363.369 332.806 364.351C331.304 364.918 329.66 364.99 328.114 364.558C324.531 366.41 318.977 368.357 320.469 370.942C323.765 371.038 330.045 370.942 334.426 369.211C340.61 366.737 344.417 364.072 348.79 362.26C349.987 361.758 351.219 361.344 352.477 361.023C352.548 358.988 352.62 357.089 352.62 356.674C352.62 356.259 351.583 354.312 350.649 352.612Z" fill="#263238" stroke="#263238" stroke-linejoin="round"/>
<path d="M339.948 88.7775C339.948 88.7775 345.837 98.1141 350.099 99.5904C354.36 101.067 366.801 100.899 370.894 104.498C374.988 108.097 373.025 119.892 370.096 125.789C367.168 131.686 373.703 131.032 377.63 134.144C381.556 137.256 380.582 145.316 376.975 149.202C373.368 153.088 364.694 156.081 364.694 156.081C364.694 156.081 363.058 148.221 358.31 145.276C353.562 142.331 345.207 138.724 343.898 132.34C342.589 125.956 337.187 114.162 337.187 114.162C337.187 114.162 343.571 111.704 343.244 104.666C342.917 97.6273 337.187 91.2353 336.86 89.759C336.533 88.2827 337.778 87.6284 339.948 88.7775Z" fill="#263238" stroke="#263238" stroke-linejoin="round"/>
<path d="M296.226 210.233C296.226 210.233 284.056 209.236 283.059 209.236C282.061 209.236 277.473 214.622 277.074 215.62C276.675 216.617 277.273 219.809 277.273 219.809L298.221 213.824L296.226 210.233Z" fill="white" stroke="#263238" stroke-linejoin="round"/>
<path d="M285.796 203.801L284.886 217.415H286.083L287.224 203.905C287.238 203.727 287.184 203.551 287.073 203.412C286.962 203.272 286.802 203.181 286.626 203.155C286.528 203.137 286.427 203.139 286.331 203.163C286.234 203.186 286.144 203.23 286.065 203.291C285.987 203.352 285.922 203.429 285.876 203.517C285.829 203.605 285.802 203.702 285.796 203.801Z" fill="#263238" stroke="#263238" stroke-linejoin="round"/>
<path d="M314.38 195.271L296.226 210.233L298.221 213.824L312.784 207.839L314.38 195.271Z" fill="#92E3A9" stroke="#263238" stroke-linejoin="round"/>
<path d="M306.767 222.291C306.767 222.291 305.881 256.11 305.881 262.303C305.881 268.495 306.983 280.896 306.983 280.896C306.983 280.896 311.412 283.553 330.196 284.431C348.981 285.309 361.151 281.119 361.151 281.119C361.151 281.119 365.348 246.63 365.795 239.113C366.242 231.596 366.011 224.525 366.011 224.525L306.767 222.291Z" fill="#263238" stroke="#263238" stroke-linejoin="round"/>
<path d="M332.535 136.618C332.535 136.618 320.565 140.408 319.368 143.401C318.171 146.393 315.777 158.762 315.777 158.762C315.777 158.762 312.784 170.932 312.984 173.126C313.183 175.321 316.375 180.707 316.375 181.306C316.375 181.904 305.004 226.393 305.004 226.393C305.004 226.393 312.984 231.181 331.138 231.979C349.293 232.777 368.245 227.39 368.245 227.39C368.245 227.39 365.452 205.246 363.457 200.857C361.462 196.468 359.467 183.5 359.467 183.5C359.467 183.5 369.243 149.585 366.45 143.6C363.657 137.615 346.5 132.229 346.5 132.229L332.535 136.618Z" fill="#DEEAFF" stroke="#263238" stroke-linejoin="round"/>
<path d="M353.554 134.862C349.692 133.266 346.5 132.237 346.5 132.237L332.535 136.626C332.535 136.626 329.127 137.703 325.76 139.171C325.233 141.964 323.836 150.343 325.153 154.581C326.749 159.768 327.747 164.755 327.747 164.755C327.747 164.755 338.121 154.581 344.106 149.992C348.455 146.648 351.958 139.211 353.554 134.862Z" fill="#3572E8" stroke="#263238" stroke-linejoin="round"/>
<path d="M309.137 113.316C309.137 113.316 310.989 119.437 312.417 120.578C313.845 121.719 314.412 122.174 314.412 122.174C314.412 122.174 313.981 130.154 315.545 130.72C316.045 130.873 316.572 130.914 317.09 130.839C317.607 130.765 318.101 130.577 318.538 130.289C318.538 130.289 326.087 138.405 327.084 138.836C328.082 139.267 330.923 136.985 330.923 136.985C330.923 136.985 327.794 147.518 327.794 155.49C327.794 163.462 327.364 165.601 328.648 163.183C329.933 160.765 343.595 141.398 345.59 137.695C346.579 135.959 347.435 134.15 348.151 132.284C348.151 132.284 343.459 124.025 342.885 122.03C342.31 120.035 341.464 115.71 341.464 115.71C341.464 115.71 341.321 116.707 332.918 112.582C328.315 110.326 323.846 107.806 319.535 105.033C317.253 103.74 309.137 113.316 309.137 113.316Z" fill="white" stroke="#263238" stroke-linejoin="round"/>
<path d="M316.112 117.912C316.112 117.912 316.583 116.093 320.413 115.518" stroke="#263238" stroke-linejoin="round"/>
<path d="M318.825 120.291L319.679 122.429C319.679 122.429 321.809 121.855 322.384 120.721" stroke="#263238" stroke-linejoin="round"/>
<path d="M321.53 131.111C321.53 131.111 324.802 130.114 324.802 127.409" stroke="#263238" stroke-linejoin="round"/>
<path d="M339.469 117.729C339.469 117.729 341.321 119.868 340.323 121.719C340.125 122.215 339.762 122.627 339.296 122.886C338.829 123.145 338.287 123.234 337.761 123.139C338.412 124.673 338.513 126.384 338.049 127.983C337.187 130.258 332.774 133.96 332.774 133.96" stroke="#263238" stroke-linejoin="round"/>
<path d="M315.266 120.721C315.266 120.721 316.862 124.424 318.115 124.568C319.368 124.711 323.948 121.855 324.658 120.434C325.369 119.014 322.951 116.165 321.674 116.165C320.397 116.165 316.008 119.7 316.008 119.7C316.008 119.7 314.979 119.868 315.266 120.721Z" stroke="#263238" stroke-linejoin="round"/>
<path d="M315.266 120.721L313.694 121.432" stroke="#263238" stroke-linejoin="round"/>
<path d="M312.816 121.144C312.816 121.144 309.831 122.142 310.111 123.427C310.39 124.711 314.101 126.698 314.101 126.698" stroke="#263238" stroke-linejoin="round"/>
<path d="M322.24 116.021L324.235 114.88" stroke="#263238" stroke-linejoin="round"/>
<path d="M330.923 136.953C330.923 136.953 332.207 142.658 331.226 147.407" stroke="#263238" stroke-linejoin="round"/>
<path d="M345.702 160.159L339.948 193.475L301.812 209.874L304.206 218.652L354.312 206.443C354.312 206.443 357.305 205.645 358.103 201.655C358.278 200.785 367.878 153.575 368.277 150.583C368.435 148.523 367.861 146.473 366.657 144.795C365.453 143.116 363.695 141.916 361.694 141.406" fill="#DEEAFF"/>
<path d="M345.702 160.159L339.948 193.475L301.812 209.874L304.206 218.652L354.312 206.443C354.312 206.443 357.305 205.645 358.103 201.655C358.278 200.785 367.878 153.575 368.277 150.583C368.435 148.523 367.861 146.473 366.657 144.795C365.453 143.116 363.695 141.916 361.694 141.406" stroke="#263238" stroke-linejoin="round"/>
<path d="M301.812 209.874L290.241 214.263C290.241 214.263 279.468 216.857 278.869 217.455C278.271 218.054 272.685 221.445 271.687 222.044C270.69 222.642 269.094 224.438 273.283 223.839C276.264 223.349 279.2 222.615 282.061 221.645C282.061 221.645 288.046 222.243 290.041 222.044C292.036 221.844 296.058 218.652 296.058 218.652L303.839 216.059L301.812 209.874Z" fill="white" stroke="#263238" stroke-linejoin="round"/>
<path d="M308.124 94.962C308.124 94.962 297.024 107.267 298.452 111.098C299.88 114.928 307.733 115.135 309.145 114.529C310.558 113.923 317.221 108.073 317.221 108.073C317.221 108.073 320.245 113.324 325.297 115.542C328.223 116.86 331.372 117.612 334.577 117.761L340.435 117.561C340.435 117.561 349.915 115.335 348.503 106.661C347.09 97.9864 342.454 88.8972 335.99 85.6733C329.526 82.4494 316.199 85.2663 308.124 94.962Z" fill="#263238" stroke="#263238" stroke-linejoin="round"/>
<path d="M310.087 111.72C310.087 111.72 308.818 107.283 311.036 106.334C313.255 105.384 315.824 106.645 315.824 106.645" stroke="#707070" stroke-linejoin="round"/>
<path d="M369.658 135.796C373.145 136.107 375.363 140.233 374.446 142.451" stroke="#707070" stroke-linejoin="round"/>
<path d="M366.88 119.995C365.245 122.836 363.002 125.581 363.002 127.552C363.05 128.853 363.372 130.128 363.947 131.296C364.522 132.463 365.337 133.496 366.338 134.327" stroke="#707070" stroke-linejoin="round"/>
<path d="M328.84 112.135C331.393 112.865 334.072 113.045 336.7 112.662C345.893 111.393 363.321 107.874 367.439 112.342C368.979 114.002 368.748 116.021 367.854 118.088" stroke="#707070" stroke-linejoin="round"/>
<path d="M322.44 108.528C323.582 109.622 324.902 110.515 326.342 111.169" stroke="#707070" stroke-linejoin="round"/>
<path d="M367.655 106.645C368.493 107.216 369.193 107.968 369.704 108.845C370.215 109.721 370.523 110.701 370.607 111.712" stroke="#707070" stroke-linejoin="round"/>
<path d="M316.742 99.6702C316.742 99.6702 319.591 98.0742 324.978 102.2C330.364 106.326 342.406 108.855 353.179 106.006C358.23 104.666 362.236 104.586 365.149 105.464" stroke="#707070" stroke-linejoin="round"/>
<path d="M345.263 118.048C345.263 118.048 357.616 117.418 357.305 125.023C356.993 132.628 358.901 133.888 361.103 134.527" stroke="#707070" stroke-linejoin="round"/>
<path d="M155.115 210.616L139.466 220.009L124.536 224.581L123.818 226.991H146.936L156.807 221.692L155.115 210.616Z" fill="#263238" stroke="#263238" stroke-linejoin="round"/>
<path d="M156.32 232.282C156.32 232.282 156.32 258.289 157.525 271.775C158.419 280.539 160.276 289.178 163.063 297.534C163.063 297.534 170.525 329.558 172.216 336.301C173.908 343.044 174.483 353.969 174.483 353.969C174.483 353.969 173.597 359.411 171.674 360.856C169.751 362.3 160.901 368.325 161.38 369.53C161.858 370.735 183.293 369.53 183.293 369.53C183.293 369.53 188.344 370.009 187.378 363.505C186.413 357.001 184.25 340.363 184.25 328.84C184.25 317.317 177.994 293.664 177.994 293.664C177.994 293.664 184.49 273.714 187.865 260.196C191.241 246.678 190.515 240.246 190.515 240.246L190.275 236.392L156.32 232.282Z" fill="white" stroke="#263238" stroke-linejoin="round"/>
<path d="M187.378 363.505C186.78 359.467 185.719 351.535 184.984 343.308C178.824 346.5 175.408 345.558 173.549 344.018C174.211 349.197 174.467 353.969 174.467 353.969C174.467 353.969 173.581 359.411 171.658 360.856C169.735 362.3 160.885 368.325 161.364 369.53C161.842 370.735 183.277 369.53 183.277 369.53C183.277 369.53 188.328 370.009 187.378 363.505Z" fill="#B0B0B0" stroke="#263238" stroke-linejoin="round"/>
<path d="M185.735 365.157C185.519 363.728 185.248 361.797 184.937 359.571C182.04 359.531 179.765 359.443 179.765 359.443C179.765 359.443 178.872 356.171 175.6 355.876C172.328 355.581 172.033 359.443 172.033 359.443H171.833C171.509 360.616 170.878 361.682 170.006 362.531C168.075 363.976 159.233 370.001 159.712 371.206C160.19 372.411 181.625 371.206 181.625 371.206C181.625 371.206 186.732 371.66 185.735 365.157Z" fill="white" stroke="#263238" stroke-linejoin="round"/>
<path d="M167.827 271.12C167.827 271.12 163.518 239.919 167.5 238.586C171.482 237.253 177.786 237.261 177.124 246.566C176.462 255.871 167.827 271.12 167.827 271.12Z" fill="#2A5BBA" stroke="#263238" stroke-linejoin="round"/>
<path d="M175.345 240.469C175.345 240.469 166.431 267.194 163.79 283.809C161.148 300.423 175.919 335.599 177.507 339.916C180.883 349.061 183.045 357.249 183.045 357.249C183.045 357.249 179.438 362.037 176.063 364.71C172.687 367.383 167.157 369.29 167.636 371.453C168.115 373.616 189.549 371.453 189.549 371.453C189.549 371.453 196.531 368.086 198.941 366.394C201.351 364.702 196.547 356.283 196.053 355.078C195.558 353.873 194.361 351.232 194.361 351.232C194.361 351.232 194.608 317.277 192.677 310.055C190.746 302.833 187.378 292.499 187.378 292.499C187.378 292.499 211.462 271.791 217 254.698C222.538 237.605 220.607 233.263 220.607 233.263L174.866 238.562L175.345 240.469Z" fill="white" stroke="#263238" stroke-linejoin="round"/>
<path d="M175.345 240.469C175.345 240.469 166.431 267.194 163.789 283.809C163.789 283.984 163.742 284.168 163.718 284.343C169.679 276.363 184.051 256.134 184.051 247.276C183.975 243.787 182.594 240.453 180.18 237.932L174.866 238.546L175.345 240.469Z" fill="#2A5BBA" stroke="#263238" stroke-linejoin="round"/>
<path d="M192.677 310.055C192.414 309.049 192.11 307.98 191.799 306.863C186.397 312.896 171.323 323.19 178.752 324.946C184.051 326.19 190.259 327.619 194.177 329.231C193.914 321.115 193.499 313.143 192.677 310.055Z" fill="#2A5BBA" stroke="#263238" stroke-linejoin="round"/>
<path d="M194.281 335.607C191.145 337.339 187.426 339.717 188.839 346.779C189.31 349.173 191.392 350.091 194.369 350.122C194.377 347.76 194.385 342.055 194.281 335.607Z" fill="#2A5BBA" stroke="#263238" stroke-linejoin="round"/>
<path d="M177.994 293.664C177.387 297.718 185.176 298.907 189.964 300.758C188.575 296.202 187.354 292.467 187.354 292.467C187.354 292.467 188.95 291.062 191.48 288.7C184.569 289.626 178.393 290.991 177.994 293.664Z" fill="#2A5BBA" stroke="#263238" stroke-linejoin="round"/>
<path d="M193.627 266.428C194.321 269.915 198.574 273.706 202.74 277.05C206.291 273.035 209.517 268.744 212.388 264.218C203.697 263.276 192.637 261.481 193.627 266.428Z" fill="#2A5BBA" stroke="#263238" stroke-linejoin="round"/>
<path d="M200.011 249.399C203.929 253.022 210.752 255.44 215.827 257.73C216.274 256.709 216.673 255.687 217 254.682C218.311 250.762 219.377 246.764 220.192 242.712C211.278 243.167 194.896 244.683 200.011 249.399Z" fill="#2A5BBA" stroke="#263238" stroke-linejoin="round"/>
<path d="M198.941 366.394C201.335 364.71 196.547 356.283 196.053 355.078C195.558 353.873 194.361 351.232 194.361 351.232C194.361 351.232 194.361 347.497 194.361 342.246C187.61 346.396 181.952 345.159 178.928 343.842C181.481 351.272 183.053 357.225 183.053 357.225C183.053 357.225 179.446 362.013 176.071 364.686C172.695 367.359 167.165 369.267 167.644 371.429C168.123 373.592 189.557 371.429 189.557 371.429C189.557 371.429 196.531 368.085 198.941 366.394Z" fill="#B0B0B0" stroke="#263238" stroke-linejoin="round"/>
<path d="M198.941 366.394C201.152 364.846 197.266 357.616 196.252 355.517C193.315 360.608 188.583 359.898 188.583 359.898C188.047 358.81 187.314 357.831 186.421 357.009C184.737 355.326 183.045 357.249 183.045 357.249C183.045 357.249 179.438 362.037 176.063 364.71C172.687 367.383 167.157 369.29 167.636 371.453C168.115 373.616 189.549 371.453 189.549 371.453C189.549 371.453 196.531 368.086 198.941 366.394Z" fill="white" stroke="#263238" stroke-linejoin="round"/>
<path d="M155.363 229.154L156.081 236.336C161.083 239.942 167.01 242.045 173.166 242.4C183.285 242.879 196.045 241.914 204.472 240.006C212.898 238.099 221.804 236.878 222.028 234.708C222.251 232.537 222.267 226.281 222.267 226.281C222.267 226.281 210.951 230.135 192.653 231.34C174.355 232.545 167.117 232.298 163.279 230.853C160.726 229.942 158.064 229.37 155.363 229.154Z" fill="#787878" stroke="#263238" stroke-miterlimit="10"/>
<path d="M178.752 140.304C178.752 140.304 165.697 149.386 161.707 158.427C157.717 167.468 151.859 176.781 152.131 185.296C152.362 190.966 153.254 196.59 154.788 202.054C155.323 204.448 149.737 224.932 153.99 230.247C158.243 235.562 173.94 238.498 188.041 236.631C202.141 234.764 217.567 233.176 221.285 229.72C225.004 226.265 226.72 217.583 224.805 214.869C222.889 212.156 220.487 185.559 220.487 179.973C220.487 174.387 224.477 158.164 224.477 158.164C224.477 158.164 230.063 148.053 228.739 144.334C227.414 140.616 218.093 135.82 212.268 135.285C206.443 134.75 204.288 133.96 197.641 134.224C190.993 134.487 181.697 137.336 178.752 140.304Z" fill="#787878" stroke="#263238" stroke-miterlimit="10"/>
<path d="M228.739 144.334C227.43 140.608 218.093 135.82 212.268 135.285C206.443 134.75 204.288 133.96 197.641 134.224C190.993 134.487 181.721 137.336 178.776 140.304C178.776 140.304 165.721 149.386 161.731 158.427C160.613 160.957 159.337 163.494 158.132 166.04C157.741 168.046 157.474 170.074 157.334 172.113C157.158 176.581 157.158 183.125 157.158 183.125C157.158 183.125 159.049 185.367 159.225 182.263C159.225 182.263 167.141 171.418 170.932 166.774C174.722 162.13 189.357 146.281 201.256 143.704C213.154 141.126 218.812 144.215 221.206 147.143C223.6 150.072 224.485 158.164 224.485 158.164C224.485 158.164 230.063 148.053 228.739 144.334Z" fill="#787878" stroke="#263238" stroke-miterlimit="10"/>
<path d="M181.744 88.0433C181.744 88.0433 181.744 83.4548 177.555 77.8688C173.365 72.2828 161.794 72.4823 156.208 80.2628C150.622 88.0433 157.605 93.2303 156.408 95.0258C155.211 96.8213 146.034 99.4148 148.827 103.405C151.62 107.395 155.211 108.783 154.812 109.382C154.413 109.98 149.026 112.973 154.213 115.367C159.4 117.761 160.398 117.96 160.398 117.96C160.398 117.96 157.206 119.756 158.602 121.352C159.999 122.948 162.792 121.152 162.792 121.152C162.792 121.152 161.794 118.758 162.991 117.96C164.188 117.162 166.183 114.968 165.385 113.372C164.587 111.776 163.39 110.579 164.986 109.382C166.582 108.185 168.178 105.591 168.976 104.594C169.774 103.596 176.757 92.0333 178.153 92.0333C179.132 91.9124 180.035 91.4421 180.694 90.7091C181.354 89.976 181.727 89.0294 181.744 88.0433Z" fill="#263238" stroke="#263238" stroke-linejoin="round"/>
<path d="M177.395 144.063C177.395 144.063 165.697 154.174 161.196 164.548C156.695 174.922 156.671 185.032 158.004 183.963C159.337 182.894 164.651 167.74 170.509 160.294C174.524 155.37 179.107 150.937 184.162 147.087L194.951 137.416L177.395 144.063Z" fill="#3572E8" stroke="#263238" stroke-linejoin="round"/>
<path d="M178.752 87.8438C178.752 87.8438 168.378 92.6318 166.782 99.0158C165.186 105.4 167.38 116.364 167.38 116.364C167.38 116.364 164.986 122.15 166.981 126.539C168.976 130.928 171.969 136.314 174.562 138.11C175.831 139.064 177.246 139.805 178.752 140.304C178.752 140.304 175.759 145.092 175.959 148.484C176.158 151.875 179.55 150.878 184.138 147.087C188.727 143.297 194.106 137.91 197.298 136.514C200.49 135.117 201.687 134.519 201.687 134.519C201.687 134.519 201.088 123.945 201.088 120.753C201.088 117.561 207.472 108.384 204.081 99.8138C200.689 91.2433 189.126 83.4548 178.752 87.8438Z" fill="#B0B0B0" stroke="#263238" stroke-miterlimit="10"/>
<path d="M170.373 116.165L169.575 118.958C169.575 118.958 170.573 119.955 173.964 119.157" stroke="#263238" stroke-miterlimit="10"/>
<path d="M174.961 117.362C174.961 117.362 171.969 123.746 173.365 124.344C174.762 124.943 178.951 123.945 178.951 123.945" stroke="#263238" stroke-miterlimit="10"/>
<path d="M180.148 115.367L179.35 118.758C180.322 119.087 181.36 119.168 182.37 118.994C183.38 118.82 184.331 118.396 185.136 117.761" stroke="#263238" stroke-miterlimit="10"/>
<path d="M169.176 112.574C169.176 112.574 171.77 109.98 174.363 112.574" stroke="#263238" stroke-miterlimit="10"/>
<path d="M178.353 110.778C179.587 110.114 181.011 109.891 182.389 110.144C183.767 110.398 185.018 111.115 185.934 112.175" stroke="#263238" stroke-miterlimit="10"/>
<path d="M172.368 129.531C172.368 129.531 173.964 132.524 176.757 132.524C179.55 132.524 182.143 129.332 182.143 129.332C182.143 129.332 174.363 129.731 172.368 129.531Z" fill="#3572E8" stroke="#263238" stroke-linejoin="round"/>
<path d="M172.368 129.531C176.085 130.432 179.989 130.153 183.54 128.733C183.54 128.733 180.149 129.332 178.952 129.132C177.755 128.933 172.767 128.534 172.368 129.531Z" fill="#92E3A9" stroke="#263238" stroke-linejoin="round"/>
<path d="M201.096 120.753C201.096 117.561 207.48 108.384 204.089 99.8138C200.697 91.2433 189.134 83.4548 178.76 87.8438C178.76 87.8438 169.511 92.1131 167.133 97.9625C167.213 97.8507 167.293 97.731 167.388 97.6193C168.696 96.1278 170.168 94.7893 171.777 93.6293C171.777 93.6293 170.979 96.8213 171.578 97.0208C172.176 97.2203 175.368 95.2253 175.368 95.2253C175.368 95.2253 172.974 98.8163 175.368 99.0158C177.762 99.2153 184.745 95.4248 184.745 95.4248C184.745 95.4248 183.348 98.8163 184.944 99.0158C186.54 99.2153 189.525 99.4148 189.525 99.4148C189.525 99.4148 188.336 102.407 189.525 103.596C189.93 103.957 190.404 104.232 190.918 104.403C191.433 104.575 191.977 104.64 192.518 104.594C192.518 104.594 190.523 107.387 191.321 108.384C192.096 109.586 192.764 110.855 193.316 112.175C193.316 112.175 195.311 106.589 197.904 111.975C198.665 113.455 198.994 115.12 198.853 116.778C198.712 118.437 198.107 120.022 197.106 121.352C197.106 121.352 197.992 123.834 201.096 122.661C201.096 121.895 201.096 121.24 201.096 120.753Z" fill="#263238" stroke="#263238" stroke-linejoin="round"/>
<path d="M166.782 101.809C166.615 101.397 166.515 100.96 166.487 100.516C166.487 100.771 166.415 101.035 166.383 101.314L166.782 101.809Z" fill="white" stroke="#263238" stroke-linejoin="round"/>
<path d="M192.51 114.569C192.51 114.569 193.108 107.387 197.298 110.18C201.487 112.973 199.093 119.157 198.295 121.152C197.497 123.147 193.108 122.948 193.108 121.751" fill="#B0B0B0"/>
<path d="M192.51 114.569C192.51 114.569 193.108 107.387 197.298 110.18C201.487 112.973 199.093 119.157 198.295 121.152C197.497 123.147 193.108 122.948 193.108 121.751" stroke="#263238" stroke-linejoin="round"/>
<path d="M178.752 140.304C177.808 141.86 177.043 143.517 176.47 145.244C178.64 144.091 180.677 142.702 182.542 141.102C185.908 138.174 188.799 134.742 191.113 130.928C191.113 130.928 185.136 136.713 183.133 138.309C181.844 139.299 180.345 139.982 178.752 140.304Z" fill="#263238" stroke="#263238" stroke-linejoin="round"/>
<path d="M197.736 154.014C197.736 154.014 191.959 158.347 189.07 167.253C186.181 176.158 182.327 201.2 182.327 201.2C178.805 202.26 175.413 203.714 172.216 205.533C167.883 208.182 146.936 221.429 146.936 221.429L144.765 222.642L147.654 229.624C156.919 228.772 166.099 227.171 175.105 224.836C189.788 220.982 202.548 217.375 204.719 214.726C206.889 212.076 217.24 177.164 218.923 170.66C220.607 164.157 221.573 160.071 217 155.251" fill="#787878"/>
<path d="M197.736 154.014C197.736 154.014 191.959 158.347 189.07 167.253C186.181 176.158 182.327 201.2 182.327 201.2C178.805 202.26 175.413 203.714 172.216 205.533C167.883 208.182 146.936 221.429 146.936 221.429L144.765 222.642L147.654 229.624C156.919 228.772 166.099 227.171 175.105 224.836C189.788 220.982 202.548 217.375 204.719 214.726C206.889 212.076 217.24 177.164 218.923 170.66C220.607 164.157 221.573 160.071 217 155.251" stroke="#263238" stroke-miterlimit="10"/>
<path d="M199.691 192.597C200.603 191.997 201.477 191.341 202.309 190.634" stroke="#263238" stroke-linejoin="round"/>
<path d="M183.54 200.745C188.274 198.819 192.879 196.594 197.329 194.082" stroke="#263238" stroke-linejoin="round"/>
<path d="M198.127 185.375C194.137 188.847 188.831 193.515 185.695 196.651" stroke="#263238" stroke-linejoin="round"/>
<path d="M203.49 180.763C203.49 180.763 202.333 181.737 200.569 183.245" stroke="#263238" stroke-linejoin="round"/>
<path d="M184.011 201.95C184.011 201.95 190.028 202.907 191.991 202.429" stroke="#263238" stroke-linejoin="round"/>
<path d="M144.765 222.642C144.765 222.642 134.655 223.36 133.45 223.36C130.463 223.612 127.49 224.014 124.544 224.565C123.818 224.805 119.245 230.343 119.245 230.343C119.245 230.343 118.28 231.548 119.485 231.308C120.69 231.069 124.544 229.864 124.544 229.864C124.544 229.864 130.321 231.069 132.245 231.069C134.168 231.069 140.911 230.103 140.911 230.103L147.654 229.625L144.765 222.642Z" fill="#B0B0B0" stroke="#263238" stroke-linejoin="round"/>
<path d="M147.893 221.453L151.021 229.64" stroke="#263238" stroke-linejoin="round"/>
<path d="M212.045 372.419C211.543 372.424 211.05 372.294 210.616 372.042C210.182 371.791 209.824 371.427 209.579 370.99C209.334 370.552 209.212 370.057 209.224 369.556C209.237 369.055 209.384 368.566 209.651 368.141L287.855 236.471C288.049 236.161 288.304 235.891 288.603 235.679C288.902 235.466 289.24 235.315 289.597 235.233C289.955 235.151 290.325 235.14 290.686 235.202C291.048 235.263 291.394 235.395 291.705 235.59C292.016 235.784 292.285 236.039 292.497 236.338C292.71 236.637 292.861 236.975 292.943 237.332C293.025 237.69 293.036 238.06 292.975 238.421C292.913 238.783 292.782 239.129 292.587 239.44L214.383 371.11C214.133 371.506 213.789 371.833 213.38 372.062C212.972 372.291 212.513 372.413 212.045 372.419Z" fill="#787878" stroke="#263238" stroke-miterlimit="10"/>
<path d="M290.257 372.419C289.779 372.424 289.308 372.307 288.888 372.077C288.469 371.848 288.116 371.515 287.863 371.11L209.659 239.44C209.464 239.129 209.332 238.783 209.271 238.421C209.209 238.06 209.22 237.69 209.302 237.332C209.384 236.975 209.535 236.637 209.748 236.338C209.96 236.039 210.23 235.784 210.54 235.59C210.851 235.395 211.197 235.263 211.559 235.202C211.92 235.14 212.291 235.151 212.648 235.233C213.006 235.315 213.344 235.466 213.643 235.679C213.942 235.891 214.196 236.161 214.391 236.471L292.595 368.141C292.858 368.567 293.003 369.055 293.015 369.555C293.026 370.055 292.903 370.549 292.659 370.986C292.414 371.422 292.057 371.785 291.625 372.037C291.193 372.289 290.701 372.421 290.201 372.419H290.257Z" fill="#787878" stroke="#263238" stroke-miterlimit="10"/>
<path d="M228.005 372.419C227.503 372.424 227.01 372.294 226.576 372.042C226.142 371.791 225.784 371.427 225.539 370.99C225.294 370.552 225.172 370.057 225.184 369.556C225.197 369.055 225.344 368.566 225.611 368.141L303.815 236.471C304.009 236.161 304.264 235.891 304.563 235.679C304.862 235.466 305.2 235.315 305.557 235.233C305.915 235.151 306.285 235.14 306.646 235.202C307.008 235.263 307.354 235.395 307.665 235.59C307.976 235.784 308.245 236.039 308.457 236.338C308.67 236.637 308.821 236.975 308.903 237.332C308.985 237.69 308.996 238.06 308.935 238.421C308.873 238.783 308.742 239.129 308.547 239.44L230.343 371.11C230.093 371.506 229.749 371.833 229.34 372.062C228.932 372.291 228.473 372.413 228.005 372.419Z" fill="white" stroke="#263238" stroke-linejoin="round"/>
<path d="M306.217 372.419C305.739 372.424 305.268 372.307 304.848 372.077C304.429 371.848 304.076 371.515 303.823 371.11L225.619 239.44C225.424 239.129 225.292 238.783 225.231 238.421C225.169 238.06 225.18 237.69 225.262 237.332C225.344 236.975 225.495 236.637 225.708 236.338C225.92 236.039 226.19 235.784 226.5 235.59C226.811 235.395 227.157 235.263 227.519 235.202C227.88 235.14 228.251 235.151 228.608 235.233C228.966 235.315 229.304 235.466 229.603 235.679C229.902 235.891 230.156 236.161 230.351 236.471L308.555 368.141C308.818 368.567 308.963 369.055 308.975 369.555C308.986 370.055 308.863 370.549 308.619 370.986C308.374 371.422 308.017 371.785 307.585 372.037C307.153 372.289 306.661 372.421 306.161 372.419H306.217Z" fill="white" stroke="#263238" stroke-linejoin="round"/>
<path d="M205.086 133.066H280.298C283.438 133.066 286.45 134.314 288.671 136.535C290.892 138.756 292.14 141.768 292.14 144.909V231.963H205.086V133.066Z" fill="white" stroke="#263238" stroke-linejoin="round"/>
<path d="M228.228 133.066H303.44C306.58 133.066 309.592 134.314 311.813 136.535C314.034 138.756 315.282 141.768 315.282 144.909V231.963H228.228V133.066Z" fill="white" stroke="#263238" stroke-linejoin="round"/>
<path d="M228.204 161.667L292.658 133.066H228.204V161.667Z" fill="#2A5BBA" stroke="#263238" stroke-linejoin="round"/>
<path d="M233.862 231.963H315.258V196.124L233.862 231.963Z" fill="#2A5BBA" stroke="#263238" stroke-linejoin="round"/>
<path d="M270.522 150.295V171.091H268.208V150.295H270.522Z" fill="#263238"/>
<path d="M243.717 178.752L247.101 196.851L250.46 178.752H252.599L248.705 199.5H245.289L241.363 178.752H243.717Z" fill="#263238"/>
<path d="M254.171 183.739C254.171 180.547 255.767 178.513 258.959 178.513C262.151 178.513 263.747 180.563 263.747 183.739V194.496C263.747 197.688 262.151 199.731 258.959 199.731C255.767 199.731 254.171 197.649 254.171 194.496V183.739ZM256.461 194.616C256.461 196.515 257.259 197.617 258.927 197.617C260.595 197.617 261.393 196.515 261.393 194.616V183.628C261.393 181.752 260.595 180.627 258.927 180.627C257.259 180.627 256.461 181.752 256.461 183.628V194.616Z" fill="#263238"/>
<path d="M268.926 199.5V180.835H265.096V178.752H275.047V180.867H271.216V199.5H268.926Z" fill="#263238"/>
<path d="M284 187.929V190.012H278.917V197.409H285.157V199.5H276.603V178.752H285.157V180.867H278.917V187.961L284 187.929Z" fill="#263238"/>
<path d="M292.172 178.752C295.412 178.752 296.896 180.715 296.896 183.923V194.409C296.896 197.601 295.412 199.548 292.172 199.548H287.28V178.752H292.172ZM292.172 197.441C293.84 197.441 294.638 196.404 294.638 194.504V183.771C294.638 181.872 293.84 180.835 292.148 180.835H289.65V197.409L292.172 197.441Z" fill="#263238"/>
<path d="M314.923 231.963H205.11V241.132H314.923V231.963Z" fill="#303030" stroke="#263238" stroke-miterlimit="10"/>
<path d="M314.915 231.963H228.132V241.132H314.915V231.963Z" fill="#787878" stroke="#263238" stroke-miterlimit="10"/>
<path d="M48.9174 372.419C48.4161 372.424 47.9226 372.294 47.4888 372.042C47.0551 371.791 46.6969 371.427 46.4521 370.99C46.2072 370.552 46.0846 370.057 46.0972 369.556C46.1097 369.055 46.2569 368.566 46.5234 368.141L124.727 236.471C124.922 236.161 125.177 235.891 125.476 235.679C125.775 235.466 126.112 235.315 126.47 235.233C126.827 235.151 127.198 235.14 127.559 235.202C127.921 235.263 128.267 235.395 128.578 235.59C128.888 235.784 129.158 236.039 129.37 236.338C129.583 236.637 129.734 236.975 129.816 237.332C129.898 237.69 129.909 238.06 129.847 238.421C129.786 238.783 129.654 239.129 129.46 239.44L51.2556 371.11C51.0062 371.506 50.6616 371.833 50.2531 372.062C49.8447 372.291 49.3855 372.413 48.9174 372.419Z" fill="#787878" stroke="#263238" stroke-miterlimit="10"/>
<path d="M127.129 372.419C126.652 372.423 126.181 372.306 125.762 372.076C125.343 371.847 124.989 371.515 124.735 371.11L46.5314 239.44C46.3365 239.129 46.2047 238.783 46.1435 238.421C46.0823 238.06 46.093 237.69 46.1749 237.332C46.2567 236.975 46.4082 236.637 46.6207 236.338C46.8332 236.039 47.1025 235.784 47.4132 235.59C47.7239 235.395 48.07 235.263 48.4316 235.202C48.7933 235.14 49.1634 235.151 49.521 235.233C49.8785 235.315 50.2164 235.466 50.5154 235.679C50.8144 235.891 51.0686 236.161 51.2635 236.471L129.468 368.141C129.86 368.768 129.988 369.525 129.824 370.246C129.659 370.967 129.216 371.593 128.59 371.988C128.152 372.262 127.646 372.411 127.129 372.419Z" fill="#787878" stroke="#263238" stroke-miterlimit="10"/>
<path d="M64.8774 372.419C64.3761 372.424 63.8826 372.294 63.4488 372.042C63.015 371.791 62.6569 371.427 62.4121 370.99C62.1672 370.552 62.0446 370.057 62.0572 369.556C62.0697 369.055 62.2169 368.566 62.4834 368.141L140.687 236.471C140.882 236.161 141.137 235.891 141.436 235.679C141.735 235.466 142.072 235.315 142.43 235.233C142.787 235.151 143.158 235.14 143.519 235.202C143.881 235.263 144.227 235.395 144.538 235.59C144.848 235.784 145.118 236.039 145.33 236.338C145.543 236.637 145.694 236.975 145.776 237.332C145.858 237.69 145.869 238.06 145.807 238.421C145.746 238.783 145.614 239.129 145.42 239.44L67.2155 371.11C66.9662 371.506 66.6216 371.833 66.2131 372.062C65.8047 372.291 65.3455 372.413 64.8774 372.419Z" fill="white" stroke="#263238" stroke-linejoin="round"/>
<path d="M143.089 372.419C142.612 372.423 142.141 372.306 141.722 372.076C141.303 371.847 140.949 371.515 140.695 371.11L62.4914 239.44C62.2965 239.129 62.1647 238.783 62.1035 238.421C62.0423 238.06 62.053 237.69 62.1348 237.332C62.2167 236.975 62.3682 236.637 62.5807 236.338C62.7932 236.039 63.0625 235.784 63.3732 235.59C63.6839 235.395 64.03 235.263 64.3916 235.202C64.7533 235.14 65.1234 235.151 65.481 235.233C65.8385 235.315 66.1764 235.466 66.4754 235.679C66.7744 235.891 67.0286 236.161 67.2235 236.471L145.428 368.141C145.82 368.768 145.948 369.525 145.784 370.246C145.619 370.967 145.175 371.593 144.55 371.988C144.112 372.262 143.606 372.411 143.089 372.419Z" fill="white" stroke="#263238" stroke-linejoin="round"/>
<path d="M41.9828 133.066H117.194C120.335 133.066 123.347 134.314 125.568 136.535C127.789 138.756 129.037 141.768 129.037 144.909V231.963H41.9828V133.066Z" fill="white" stroke="#263238" stroke-linejoin="round"/>
<path d="M65.0849 133.066H140.288C143.429 133.066 146.441 134.314 148.662 136.535C150.883 138.756 152.131 141.768 152.131 144.909V231.963H65.0849V133.066Z" fill="white" stroke="#263238" stroke-linejoin="round"/>
<path d="M65.0849 161.667L129.531 133.066H65.0849V161.667Z" fill="#2A5BBA" stroke="#263238" stroke-linejoin="round"/>
<path d="M70.7347 231.963H152.139V196.124L70.7347 231.963Z" fill="#3572E8" stroke="#263238" stroke-linejoin="round"/>
<path d="M107.355 150.295V171.091H105.041V150.295H107.355Z" fill="#263238"/>
<path d="M80.598 178.752L83.9815 196.851L87.3331 178.752H89.4717L85.5775 199.5H82.194L78.2439 178.752H80.598Z" fill="#263238"/>
<path d="M91.0438 183.739C91.0438 180.547 92.6398 178.513 95.8318 178.513C99.0238 178.513 100.62 180.563 100.62 183.739V194.496C100.62 197.688 99.0238 199.731 95.8318 199.731C92.6398 199.731 91.0438 197.649 91.0438 194.496V183.739ZM93.366 194.616C93.366 196.515 94.164 197.617 95.8318 197.617C97.4997 197.617 98.2977 196.515 98.2977 194.616V183.628C98.2977 181.752 97.4997 180.627 95.8318 180.627C94.164 180.627 93.366 181.752 93.366 183.628V194.616Z" fill="#263238"/>
<path d="M105.783 199.5V180.835H101.952V178.752H111.904V180.867H108.073V199.5H105.783Z" fill="#263238"/>
<path d="M120.873 187.929V190.012H115.798V197.409H122.038V199.5H113.476V178.752H122.038V180.867H115.798V187.961L120.873 187.929Z" fill="#263238"/>
<path d="M129.045 178.752C132.284 178.752 133.769 180.715 133.769 183.923V194.409C133.769 197.601 132.284 199.548 129.045 199.548H124.177V178.752H129.045ZM129.045 197.441C130.704 197.441 131.51 196.404 131.51 194.504V183.771C131.51 181.872 130.712 180.835 129.013 180.835H126.515V197.409L129.045 197.441Z" fill="#263238"/>
<path d="M151.796 231.963H41.9828V241.132H151.796V231.963Z" fill="#303030" stroke="#263238" stroke-miterlimit="10"/>
<path d="M151.788 231.963H65.0051V241.132H151.788V231.963Z" fill="#787878" stroke="#263238" stroke-miterlimit="10"/>
<path d="M5.28276 372.419H381.157" stroke="#263238" stroke-linejoin="round"/>
</svg>
