<svg width="19" height="45" viewBox="0 0 19 45" fill="none" xmlns="http://www.w3.org/2000/svg">
<path d="M1.15187 44.5193C0.278617 44.1389 0.0612402 43.4484 0.0162655 42.5348C-0.0699359 40.7621 0.179298 39.0802 0.936371 37.4752C1.26431 36.7809 1.34676 36.0501 1.33177 35.2827C1.30085 33.6167 1.32053 31.9499 1.32334 30.2839C1.32334 29.2102 1.91644 28.6227 2.99303 28.618C3.25257 28.618 3.51211 28.618 3.80257 28.618C4.19516 27.3156 4.584 26.032 4.96629 24.7474C5.17711 24.0409 5.55002 23.3269 5.52847 22.6251C5.50692 21.9233 5.09371 21.23 4.85104 20.5338C4.73766 20.2059 4.61399 19.8779 4.50904 19.55C4.38443 19.1574 4.53153 18.822 4.86978 18.6908C5.22958 18.5512 5.58281 18.7105 5.7346 19.1209C6.04005 19.9482 6.33989 20.7784 6.61067 21.6179C6.70437 21.9083 6.84398 21.9927 7.13725 21.9833C7.6835 21.9599 8.23163 21.9767 8.84441 21.9767V21.0791C8.84441 20.3689 8.84441 19.6587 8.84441 18.9485C8.84441 18.3488 9.06366 18.0677 9.50498 18.0724C9.94629 18.0771 10.1449 18.3535 10.1477 18.9672C10.1477 19.7927 10.1477 20.6191 10.1477 21.4445V21.9739C10.8233 21.9739 11.4595 21.9908 12.0854 21.958C12.1885 21.9524 12.3225 21.7425 12.373 21.602C13.3344 18.9041 14.2895 16.2044 15.2383 13.5028C15.8067 11.8931 16.3749 10.2833 16.9427 8.67362C16.9961 8.51995 17.0307 8.35973 17.0738 8.20513L16.9736 8.14142C16.8557 8.22963 16.7436 8.3254 16.6381 8.42813C14.8891 10.3239 13.1417 12.2213 11.3958 14.1202C10.2817 15.3308 8.71792 15.3327 7.59824 14.1202C5.85797 12.235 4.11958 10.3489 2.38306 8.46186C2.27437 8.34474 2.14413 8.24823 2.0242 8.14142L1.923 8.20794C1.96517 8.36629 1.99702 8.52745 2.05043 8.68111C2.90963 11.1238 3.78008 13.5627 4.61773 16.012C4.6507 16.1378 4.65816 16.2689 4.63965 16.3977C4.62114 16.5264 4.57706 16.6501 4.50998 16.7616C4.41629 16.9021 4.06398 17.0061 3.91032 16.9377C3.67519 16.8177 3.49219 16.6157 3.39592 16.3699C2.68663 14.4276 2.00639 12.474 1.31772 10.5232C1.11627 9.95071 0.904514 9.38103 0.715246 8.80386C0.479129 8.0852 0.715246 7.43307 1.31397 7.06671C1.9127 6.70036 2.60324 6.79499 3.12701 7.3478C3.74073 7.97745 4.33289 8.63333 4.92881 9.28921C5.01654 9.39754 5.09758 9.51113 5.17148 9.62933L5.28954 9.54875C5.38324 9.04091 5.48443 8.53588 5.55002 8.02523C5.56501 7.91373 5.4685 7.7582 5.37855 7.66731C4.81637 7.10513 4.24294 6.54857 3.66764 5.99669C3.24882 5.59379 3.038 5.13093 3.23664 4.55094C3.43527 3.97096 3.8616 3.71891 4.44439 3.64395C5.23426 3.54276 6.02319 3.43033 6.8065 3.29072C6.89118 3.26877 6.97061 3.23011 7.04013 3.17701C7.10964 3.12391 7.16783 3.05744 7.21127 2.98152C7.58606 2.27785 7.92899 1.56107 8.27286 0.843346C8.52022 0.328949 8.90251 0.00944146 9.48436 7.1743e-05C10.0878 -0.00555009 10.4794 0.319579 10.7333 0.850842C11.0772 1.56856 11.4239 2.28441 11.7968 2.98714C11.8411 3.06275 11.9 3.12874 11.9702 3.1812C12.0403 3.23367 12.1203 3.27154 12.2053 3.29259C13.0036 3.4322 13.8076 3.53714 14.6105 3.65145C15.1727 3.73109 15.5831 4.00656 15.7677 4.56312C15.9523 5.11968 15.7761 5.55912 15.3854 5.94422C14.8176 6.5064 14.2507 7.06859 13.6708 7.61109C13.4834 7.78631 13.4047 7.94278 13.4702 8.21169C13.5789 8.65488 13.6323 9.11118 13.7251 9.65931C14.0999 9.25079 14.4231 8.90974 14.7417 8.56024C15.0856 8.18546 15.4257 7.81067 15.7724 7.44056C16.3524 6.81841 17.0326 6.68536 17.681 7.06578C18.3294 7.44619 18.5318 8.09644 18.2432 8.91817C16.8274 12.9471 15.4482 16.9827 13.9631 20.9817C13.5311 22.1463 13.4637 23.1789 13.8947 24.3445C14.4063 25.7246 14.7586 27.1629 15.1933 28.6217C15.51 28.6217 15.8258 28.6152 16.1415 28.6217C17.0495 28.6424 17.6688 29.2561 17.6763 30.1603C17.6857 31.2321 17.681 32.305 17.6763 33.3769C17.6763 33.8763 17.4168 34.1789 17.0157 34.1714C16.6147 34.1639 16.3767 33.8632 16.3749 33.3544C16.3749 32.3546 16.3636 31.3549 16.3749 30.3561C16.3805 30.0413 16.2868 29.9195 15.9579 29.9204C11.6535 29.9279 7.349 29.9279 3.04456 29.9204C2.80844 29.9204 2.6173 29.9288 2.61917 30.254C2.62761 32.0801 2.62479 33.9081 2.62761 35.7315C2.63745 35.7878 2.6538 35.8429 2.67633 35.8955H16.7496C17.4055 35.8955 17.5161 35.9704 17.7391 36.5757C17.8496 36.8746 17.9321 37.1857 18.0661 37.4724C18.8157 39.0802 19.0715 40.7612 18.9834 42.532C18.9384 43.4446 18.7276 44.1446 17.8506 44.5193H1.15187ZM14.4119 4.94353C13.6455 4.83204 12.8753 4.69055 12.0995 4.61466C11.3789 4.54345 10.8954 4.22675 10.6003 3.55213C10.2799 2.81848 9.89476 2.11294 9.49936 1.31839C9.07303 2.17666 8.68138 2.94591 8.30753 3.72453C8.07516 4.20895 7.71255 4.49379 7.18316 4.56781C6.88239 4.60904 6.58163 4.65307 6.28086 4.69805L4.61867 4.95103C5.23145 5.60035 5.81799 6.2403 6.42609 6.85964C6.6115 7.03274 6.74815 7.25154 6.82231 7.49411C6.89648 7.73668 6.90557 7.99449 6.84866 8.24168C6.68844 9.07652 6.56195 9.91698 6.40547 10.8511C6.61817 10.7453 6.74372 10.6844 6.86647 10.6206C7.46894 10.3049 8.07984 10.0041 8.67014 9.66774C9.24356 9.34074 9.78326 9.35292 10.3567 9.67711C10.9723 10.0275 11.6075 10.3442 12.2362 10.6712C12.3534 10.7225 12.4732 10.7676 12.5951 10.8062C12.4489 9.92635 12.3374 9.11025 12.1707 8.30632C12.0423 7.68699 12.2128 7.21663 12.6579 6.78187C13.251 6.1972 13.8113 5.57412 14.4119 4.94353ZM1.34489 40.7059C1.34489 41.3861 1.36831 42.0176 1.33739 42.6548C1.31584 43.083 1.43953 43.2263 1.89208 43.2254C6.9611 43.2095 12.0301 43.2151 17.0991 43.2151C17.2003 43.2151 17.3165 43.2451 17.399 43.2048C17.4983 43.1579 17.6379 43.052 17.6398 42.9687C17.6585 42.2191 17.651 41.4695 17.651 40.7059H1.34489ZM13.7823 28.5908C13.7829 28.5318 13.7782 28.4728 13.7682 28.4147C13.281 26.7806 12.7956 25.1456 12.2915 23.5162C12.2593 23.4545 12.2126 23.4016 12.1555 23.3618C12.0984 23.322 12.0326 23.2965 11.9636 23.2876C10.3267 23.2726 8.69075 23.2819 7.05386 23.2726C6.81774 23.2726 6.72873 23.3663 6.67157 23.5771C6.5226 24.1215 6.353 24.6593 6.19184 25.199C5.85735 26.3234 5.52191 27.4384 5.17711 28.5908H13.7823ZM1.64378 39.3566H17.3559C17.1329 38.7373 16.9024 38.162 16.7225 37.5764C16.6288 37.2625 16.4601 37.195 16.1603 37.1969C14.0324 37.2082 11.9036 37.2035 9.77576 37.2035C7.45957 37.2035 5.14337 37.2035 2.82718 37.2091C2.67539 37.2091 2.42897 37.2606 2.38962 37.3553C2.11977 38.0008 1.89396 38.668 1.64378 39.3566ZM11.7003 11.8649C11.0032 11.4977 10.3567 11.1472 9.69799 10.8193C9.63549 10.7926 9.56824 10.7789 9.50029 10.7789C9.43234 10.7789 9.3651 10.7926 9.30259 10.8193C8.64671 11.1491 7.99833 11.5005 7.31434 11.8631C7.76502 12.3643 8.19978 12.8497 8.64577 13.3182C9.14424 13.8438 9.82261 13.8579 10.3323 13.3397C10.7858 12.8787 11.214 12.3896 11.7003 11.8649Z" fill="#9A3700"/>
</svg>
