<svg width="37" height="36" viewBox="0 0 37 36" fill="none" xmlns="http://www.w3.org/2000/svg">
<path d="M9.11293 26.0152C7.73983 26.0152 6.43036 26.0152 5.11996 26.0152C4.69161 26.0279 4.26289 26.0137 3.83631 25.9728C2.44569 25.7883 1.45436 24.7205 1.40825 23.3142C1.3686 22.1052 1.3935 20.8935 1.39258 19.6836C1.39258 17.5525 1.38335 15.4214 1.39258 13.2902C1.40088 11.7364 2.35347 10.6316 3.84184 10.4057C5.28134 10.1872 6.73283 11.2596 6.94585 12.7056C6.98196 12.9678 6.99922 13.2322 6.99749 13.4968C7.00241 15.6411 7.00241 17.7849 6.99749 19.928V20.4103H7.45304C8.89069 20.4103 10.3283 20.4103 11.766 20.4103C13.5255 20.4149 14.7105 21.5851 14.7169 23.3501C14.7261 26.5906 14.7261 29.8311 14.7169 33.0716C14.7169 34.3626 14.0474 35.3641 12.9353 35.8049C12.4229 36.0074 11.8619 36.0535 11.3232 35.9375C10.7846 35.8214 10.2924 35.5484 9.90876 35.1529C9.33057 34.56 9.10648 33.837 9.11017 33.019C9.11939 30.8501 9.11017 28.6848 9.11017 26.5122L9.11293 26.0152ZM2.45399 18.1768C2.45399 19.766 2.45399 21.3552 2.45399 22.9444C2.45399 24.2695 3.13547 24.9529 4.45232 24.9538H9.33794C10.0618 24.9538 10.1771 25.0672 10.178 25.7837C10.178 28.1675 10.178 30.5513 10.178 32.936C10.1698 33.2 10.1987 33.4639 10.2638 33.7199C10.3817 34.1098 10.6342 34.4451 10.9765 34.666C11.3187 34.887 11.7282 34.9791 12.1321 34.9261C13.0709 34.7822 13.662 34.0804 13.6638 33.0688C13.6693 29.8277 13.6693 26.586 13.6638 23.3437C13.6638 22.1716 12.9436 21.4689 11.7669 21.4671C10.1015 21.4671 8.43699 21.4671 6.77156 21.4671C6.08547 21.4671 5.94161 21.3297 5.94161 20.6565C5.94161 18.2589 5.94161 15.8612 5.94161 13.4636C5.94561 13.237 5.92677 13.0105 5.88536 12.7877C5.78764 12.3592 5.53028 11.9841 5.16569 11.7388C4.8011 11.4934 4.3567 11.3963 3.92299 11.4671C3.02757 11.623 2.46321 12.2971 2.45675 13.2543C2.44753 14.8985 2.45491 16.5381 2.45399 18.1786V18.1768Z" fill="#FFD600"/>
<path d="M9.11293 26.0152C7.73983 26.0152 6.43036 26.0152 5.11996 26.0152C4.69161 26.0279 4.26289 26.0137 3.83631 25.9728C2.44569 25.7883 1.45436 24.7205 1.40825 23.3142C1.3686 22.1052 1.3935 20.8935 1.39258 19.6836C1.39258 17.5525 1.38335 15.4214 1.39258 13.2902C1.40088 11.7364 2.35347 10.6316 3.84184 10.4057C5.28134 10.1872 6.73283 11.2596 6.94585 12.7056C6.98196 12.9678 6.99922 13.2322 6.99749 13.4968C7.00241 15.6411 7.00241 17.7849 6.99749 19.928V20.4103H7.45304C8.89069 20.4103 10.3283 20.4103 11.766 20.4103C13.5255 20.4149 14.7105 21.5851 14.7169 23.3501C14.7261 26.5906 14.7261 29.8311 14.7169 33.0716C14.7169 34.3626 14.0474 35.3641 12.9353 35.8049C12.4229 36.0074 11.8619 36.0535 11.3232 35.9375C10.7846 35.8214 10.2924 35.5484 9.90876 35.1529C9.33057 34.56 9.10648 33.837 9.11017 33.019C9.11939 30.8501 9.11017 28.6848 9.11017 26.5122L9.11293 26.0152ZM2.45399 18.1768C2.45399 19.766 2.45399 21.3552 2.45399 22.9444C2.45399 24.2695 3.13547 24.9529 4.45232 24.9538H9.33794C10.0618 24.9538 10.1771 25.0672 10.178 25.7837C10.178 28.1675 10.178 30.5513 10.178 32.936C10.1698 33.2 10.1987 33.4639 10.2638 33.7199C10.3817 34.1098 10.6342 34.4451 10.9765 34.666C11.3187 34.887 11.7282 34.9791 12.1321 34.9261C13.0709 34.7822 13.662 34.0804 13.6638 33.0688C13.6693 29.8277 13.6693 26.586 13.6638 23.3437C13.6638 22.1716 12.9436 21.4689 11.7669 21.4671C10.1015 21.4671 8.43699 21.4671 6.77156 21.4671C6.08547 21.4671 5.94161 21.3297 5.94161 20.6565C5.94161 18.2589 5.94161 15.8612 5.94161 13.4636C5.94561 13.237 5.92677 13.0105 5.88536 12.7877C5.78764 12.3592 5.53028 11.9841 5.16569 11.7388C4.8011 11.4934 4.3567 11.3963 3.92299 11.4671C3.02757 11.623 2.46321 12.2971 2.45675 13.2543C2.44753 14.8985 2.45491 16.5381 2.45399 18.1786V18.1768Z" fill="black" fill-opacity="0.62"/>
<path d="M29.0003 20.4093V19.916C29.0003 17.7212 28.9939 15.5265 29.0003 13.3326C29.0068 11.9051 29.8395 10.8197 31.149 10.4924C31.5416 10.3961 31.9504 10.3863 32.3471 10.4637C32.7439 10.5412 33.119 10.7039 33.4466 10.9408C33.7742 11.1777 34.0463 11.4829 34.2441 11.8354C34.442 12.1879 34.5608 12.5792 34.5923 12.9822C34.6043 13.1454 34.608 13.3105 34.608 13.4737C34.608 16.6266 34.5739 19.7804 34.6228 22.9324C34.6504 24.7583 33.3317 26.0742 31.5234 26.0198C30.1401 25.9792 28.7486 26.0115 27.3617 26.0115H26.8904V26.4726C26.8904 28.6673 26.8969 30.8621 26.8904 33.0559C26.8849 34.4714 26.1001 35.5384 24.8377 35.8897C24.4512 35.9977 24.0459 36.021 23.6495 35.9581C23.2531 35.8951 22.875 35.7474 22.5409 35.5249C22.2069 35.3025 21.9248 35.0106 21.7138 34.6691C21.5029 34.3277 21.3681 33.9448 21.3187 33.5465C21.2966 33.3842 21.2846 33.2206 21.2827 33.0568C21.2827 29.8151 21.2827 26.574 21.2827 23.3335C21.2827 21.8747 22.1413 20.7699 23.4959 20.4674C23.7432 20.4197 23.9948 20.3987 24.2466 20.4047C25.6852 20.3992 27.1228 20.4047 28.5605 20.4047L29.0003 20.4093ZM33.5512 18.1851C33.5512 16.6211 33.5512 15.0571 33.5512 13.4931C33.5545 13.304 33.5462 13.1149 33.5263 12.9269C33.4938 12.7018 33.4172 12.4853 33.3007 12.2898C33.1843 12.0944 33.0304 11.924 32.8479 11.7882C32.6653 11.6525 32.4578 11.5541 32.2371 11.4989C32.0165 11.4436 31.7871 11.4325 31.5621 11.4662C30.6261 11.6193 30.0608 12.3173 30.059 13.3446C30.0553 15.7921 30.0553 18.2392 30.059 20.686C30.059 21.314 29.905 21.468 29.2788 21.4689H24.3231C23.0219 21.4689 22.3414 22.1476 22.3405 23.4497C22.3405 26.6158 22.3405 29.7819 22.3405 32.948C22.3375 33.1623 22.3554 33.3763 22.394 33.5871C22.4924 34.0217 22.7544 34.4018 23.1256 34.6484C23.4969 34.895 23.9488 34.9891 24.3877 34.9113C25.2914 34.7379 25.8262 34.0657 25.8281 33.067C25.8345 30.6195 25.8281 28.173 25.8281 25.7256C25.8281 25.1041 25.9701 24.9611 26.5806 24.9611C28.246 24.9611 29.9111 24.9611 31.5759 24.9611C32.8476 24.9611 33.5429 24.2677 33.5457 22.9979C33.5512 21.3927 33.5531 19.7884 33.5512 18.1851Z" fill="#FFD600"/>
<path d="M29.0003 20.4093V19.916C29.0003 17.7212 28.9939 15.5265 29.0003 13.3326C29.0068 11.9051 29.8395 10.8197 31.149 10.4924C31.5416 10.3961 31.9504 10.3863 32.3471 10.4637C32.7439 10.5412 33.119 10.7039 33.4466 10.9408C33.7742 11.1777 34.0463 11.4829 34.2441 11.8354C34.442 12.1879 34.5608 12.5792 34.5923 12.9822C34.6043 13.1454 34.608 13.3105 34.608 13.4737C34.608 16.6266 34.5739 19.7804 34.6228 22.9324C34.6504 24.7583 33.3317 26.0742 31.5234 26.0198C30.1401 25.9792 28.7486 26.0115 27.3617 26.0115H26.8904V26.4726C26.8904 28.6673 26.8969 30.8621 26.8904 33.0559C26.8849 34.4714 26.1001 35.5384 24.8377 35.8897C24.4512 35.9977 24.0459 36.021 23.6495 35.9581C23.2531 35.8951 22.875 35.7474 22.5409 35.5249C22.2069 35.3025 21.9248 35.0106 21.7138 34.6691C21.5029 34.3277 21.3681 33.9448 21.3187 33.5465C21.2966 33.3842 21.2846 33.2206 21.2827 33.0568C21.2827 29.8151 21.2827 26.574 21.2827 23.3335C21.2827 21.8747 22.1413 20.7699 23.4959 20.4674C23.7432 20.4197 23.9948 20.3987 24.2466 20.4047C25.6852 20.3992 27.1228 20.4047 28.5605 20.4047L29.0003 20.4093ZM33.5512 18.1851C33.5512 16.6211 33.5512 15.0571 33.5512 13.4931C33.5545 13.304 33.5462 13.1149 33.5263 12.9269C33.4938 12.7018 33.4172 12.4853 33.3007 12.2898C33.1843 12.0944 33.0304 11.924 32.8479 11.7882C32.6653 11.6525 32.4578 11.5541 32.2371 11.4989C32.0165 11.4436 31.7871 11.4325 31.5621 11.4662C30.6261 11.6193 30.0608 12.3173 30.059 13.3446C30.0553 15.7921 30.0553 18.2392 30.059 20.686C30.059 21.314 29.905 21.468 29.2788 21.4689H24.3231C23.0219 21.4689 22.3414 22.1476 22.3405 23.4497C22.3405 26.6158 22.3405 29.7819 22.3405 32.948C22.3375 33.1623 22.3554 33.3763 22.394 33.5871C22.4924 34.0217 22.7544 34.4018 23.1256 34.6484C23.4969 34.895 23.9488 34.9891 24.3877 34.9113C25.2914 34.7379 25.8262 34.0657 25.8281 33.067C25.8345 30.6195 25.8281 28.173 25.8281 25.7256C25.8281 25.1041 25.9701 24.9611 26.5806 24.9611C28.246 24.9611 29.9111 24.9611 31.5759 24.9611C32.8476 24.9611 33.5429 24.2677 33.5457 22.9979C33.5512 21.3927 33.5531 19.7884 33.5512 18.1851Z" fill="black" fill-opacity="0.62"/>
<path d="M13.4554 9.46325C12.3534 9.46325 11.3197 9.46325 10.2869 9.46325C10.0102 9.46325 9.74277 9.44757 9.61183 9.15893C9.48088 8.8703 9.63304 8.63422 9.83868 8.4212C10.2684 7.97672 10.6981 7.53316 11.103 7.06654C11.2279 6.91893 11.3016 6.73485 11.3132 6.54183C11.328 4.62558 11.3215 2.70932 11.3224 0.79306C11.3224 0.147545 11.4709 0.000922164 12.1275 0H21.7364C22.4078 0 22.5489 0.144779 22.5498 0.823492C22.5498 1.17668 22.5498 1.52987 22.5544 1.88306C22.5623 1.92815 22.5737 1.97255 22.5885 2.01585H22.9721C23.9183 2.01585 24.8635 2.01585 25.8096 2.01585C26.0697 2.01585 26.3371 2.07118 26.3823 2.33492C26.4123 2.56159 26.3538 2.79109 26.2191 2.97582C25.8179 3.46088 25.3744 3.9109 24.9281 4.35907C24.8426 4.43997 24.7757 4.5384 24.732 4.6476C24.6882 4.7568 24.6686 4.87418 24.6745 4.99167C24.6846 6.88211 24.6809 8.77255 24.68 10.6648C24.68 11.3306 24.5426 11.4726 23.8906 11.4726H14.2475C13.5928 11.4726 13.4563 11.3316 13.4554 10.6685C13.4545 10.2803 13.4554 9.89206 13.4554 9.46325ZM12.3811 1.08262V1.5437C12.3811 3.29581 12.3756 5.04793 12.3857 6.80004C12.3944 6.95044 12.37 7.10091 12.3144 7.24093C12.2589 7.38095 12.1733 7.50712 12.0639 7.61062C11.8241 7.84024 11.6074 8.09383 11.3464 8.37417H21.4699V1.08262H12.3811ZM14.5362 10.3873H23.6223V9.95107C23.6223 8.18605 23.6223 6.42103 23.6177 4.65601C23.6096 4.51185 23.633 4.36768 23.6862 4.23346C23.7394 4.09924 23.8211 3.97817 23.9257 3.87862C24.1663 3.64808 24.3867 3.39356 24.6542 3.10677H22.5498V8.68679C22.5498 9.32031 22.4096 9.45956 21.7733 9.46048H14.5371L14.5362 10.3873Z" fill="#FFD600"/>
<path d="M13.4554 9.46325C12.3534 9.46325 11.3197 9.46325 10.2869 9.46325C10.0102 9.46325 9.74277 9.44757 9.61183 9.15893C9.48088 8.8703 9.63304 8.63422 9.83868 8.4212C10.2684 7.97672 10.6981 7.53316 11.103 7.06654C11.2279 6.91893 11.3016 6.73485 11.3132 6.54183C11.328 4.62558 11.3215 2.70932 11.3224 0.79306C11.3224 0.147545 11.4709 0.000922164 12.1275 0H21.7364C22.4078 0 22.5489 0.144779 22.5498 0.823492C22.5498 1.17668 22.5498 1.52987 22.5544 1.88306C22.5623 1.92815 22.5737 1.97255 22.5885 2.01585H22.9721C23.9183 2.01585 24.8635 2.01585 25.8096 2.01585C26.0697 2.01585 26.3371 2.07118 26.3823 2.33492C26.4123 2.56159 26.3538 2.79109 26.2191 2.97582C25.8179 3.46088 25.3744 3.9109 24.9281 4.35907C24.8426 4.43997 24.7757 4.5384 24.732 4.6476C24.6882 4.7568 24.6686 4.87418 24.6745 4.99167C24.6846 6.88211 24.6809 8.77255 24.68 10.6648C24.68 11.3306 24.5426 11.4726 23.8906 11.4726H14.2475C13.5928 11.4726 13.4563 11.3316 13.4554 10.6685C13.4545 10.2803 13.4554 9.89206 13.4554 9.46325ZM12.3811 1.08262V1.5437C12.3811 3.29581 12.3756 5.04793 12.3857 6.80004C12.3944 6.95044 12.37 7.10091 12.3144 7.24093C12.2589 7.38095 12.1733 7.50712 12.0639 7.61062C11.8241 7.84024 11.6074 8.09383 11.3464 8.37417H21.4699V1.08262H12.3811ZM14.5362 10.3873H23.6223V9.95107C23.6223 8.18605 23.6223 6.42103 23.6177 4.65601C23.6096 4.51185 23.633 4.36768 23.6862 4.23346C23.7394 4.09924 23.8211 3.97817 23.9257 3.87862C24.1663 3.64808 24.3867 3.39356 24.6542 3.10677H22.5498V8.68679C22.5498 9.32031 22.4096 9.45956 21.7733 9.46048H14.5371L14.5362 10.3873Z" fill="black" fill-opacity="0.62"/>
<path d="M18.0063 17.8494H10.3523C9.69851 17.8494 9.54912 17.7019 9.5482 17.0508C9.5482 16.2808 9.5482 15.5117 9.5482 14.7454C9.5482 14.1921 9.72341 14.0187 10.2767 14.0187C15.4242 14.0187 20.5718 14.0187 25.7193 14.0187C26.2726 14.0187 26.445 14.1949 26.4478 14.7463C26.4521 15.5412 26.4521 16.3358 26.4478 17.1301C26.4478 17.6834 26.2698 17.8522 25.7183 17.8522C23.1474 17.8516 20.5767 17.8506 18.0063 17.8494ZM10.629 16.7613H25.3559V15.1014H10.629V16.7613Z" fill="#FFD600"/>
<path d="M18.0063 17.8494H10.3523C9.69851 17.8494 9.54912 17.7019 9.5482 17.0508C9.5482 16.2808 9.5482 15.5117 9.5482 14.7454C9.5482 14.1921 9.72341 14.0187 10.2767 14.0187C15.4242 14.0187 20.5718 14.0187 25.7193 14.0187C26.2726 14.0187 26.445 14.1949 26.4478 14.7463C26.4521 15.5412 26.4521 16.3358 26.4478 17.1301C26.4478 17.6834 26.2698 17.8522 25.7183 17.8522C23.1474 17.8516 20.5767 17.8506 18.0063 17.8494ZM10.629 16.7613H25.3559V15.1014H10.629V16.7613Z" fill="black" fill-opacity="0.62"/>
<path d="M27.6189 5.68511C27.6146 5.12967 27.7207 4.57891 27.931 4.0648C28.1413 3.5507 28.4516 3.08351 28.844 2.69035C29.2364 2.2972 29.703 1.98592 30.2166 1.7746C30.7303 1.56328 31.2809 1.45612 31.8363 1.45936C32.3918 1.4626 32.941 1.57616 33.4522 1.79346C33.9634 2.01075 34.4263 2.32745 34.8141 2.72515C35.2019 3.12285 35.5068 3.59363 35.7111 4.11015C35.9153 4.62667 36.015 5.17863 36.0042 5.73398C35.9857 8.0145 34.1027 9.8745 31.8037 9.88372C29.5048 9.89295 27.6171 7.99144 27.6189 5.68511ZM31.8268 2.56358C31.2062 2.56123 30.5989 2.74341 30.0821 3.08699C29.5653 3.43056 29.1623 3.92002 28.9243 4.49316C28.6863 5.0663 28.6241 5.69726 28.7456 6.30585C28.867 6.91443 29.1666 7.47318 29.6064 7.91109C30.0461 8.349 30.6061 8.6463 31.2152 8.76522C31.8242 8.88413 32.4549 8.81929 33.0271 8.57893C33.5992 8.33857 34.087 7.93355 34.4284 7.41533C34.7699 6.8971 34.9495 6.28908 34.9446 5.66851C34.9366 4.84527 34.6052 4.0582 34.0218 3.47727C33.4385 2.89633 32.65 2.56815 31.8268 2.56358Z" fill="#FFD600"/>
<path d="M27.6189 5.68511C27.6146 5.12967 27.7207 4.57891 27.931 4.0648C28.1413 3.5507 28.4516 3.08351 28.844 2.69035C29.2364 2.2972 29.703 1.98592 30.2166 1.7746C30.7303 1.56328 31.2809 1.45612 31.8363 1.45936C32.3918 1.4626 32.941 1.57616 33.4522 1.79346C33.9634 2.01075 34.4263 2.32745 34.8141 2.72515C35.2019 3.12285 35.5068 3.59363 35.7111 4.11015C35.9153 4.62667 36.015 5.17863 36.0042 5.73398C35.9857 8.0145 34.1027 9.8745 31.8037 9.88372C29.5048 9.89295 27.6171 7.99144 27.6189 5.68511ZM31.8268 2.56358C31.2062 2.56123 30.5989 2.74341 30.0821 3.08699C29.5653 3.43056 29.1623 3.92002 28.9243 4.49316C28.6863 5.0663 28.6241 5.69726 28.7456 6.30585C28.867 6.91443 29.1666 7.47318 29.6064 7.91109C30.0461 8.349 30.6061 8.6463 31.2152 8.76522C31.8242 8.88413 32.4549 8.81929 33.0271 8.57893C33.5992 8.33857 34.087 7.93355 34.4284 7.41533C34.7699 6.8971 34.9495 6.28908 34.9446 5.66851C34.9366 4.84527 34.6052 4.0582 34.0218 3.47727C33.4385 2.89633 32.65 2.56815 31.8268 2.56358Z" fill="black" fill-opacity="0.62"/>
<path d="M4.22824 1.55666C5.05444 1.56597 5.85937 1.81988 6.54138 2.28631C7.22339 2.75275 7.75191 3.4108 8.06022 4.17738C8.36852 4.94397 8.44278 5.78471 8.27362 6.59347C8.10447 7.40223 7.69947 8.14273 7.10978 8.72149C6.52009 9.30025 5.77214 9.69132 4.96035 9.84532C4.14857 9.99931 3.30936 9.90933 2.54868 9.58674C1.788 9.26415 1.13996 8.7234 0.686364 8.03278C0.232771 7.34216 -0.00602787 6.53263 0.000115625 5.7064C0.00505708 5.15624 0.118364 4.61245 0.33356 4.1061C0.548756 3.59975 0.861623 3.14077 1.25428 2.75539C1.64694 2.37001 2.11169 2.06579 2.62198 1.8601C3.13227 1.65442 3.67808 1.5513 4.22824 1.55666ZM4.16 8.8602C4.77672 8.86435 5.38086 8.68571 5.89615 8.34684C6.41145 8.00796 6.81482 7.52404 7.05535 6.95614C7.29587 6.38823 7.36278 5.76181 7.24763 5.15591C7.13248 4.55002 6.84042 3.99181 6.40832 3.55175C5.97623 3.11168 5.42345 2.80948 4.81976 2.68327C4.21607 2.55707 3.58853 2.61252 3.01633 2.84263C2.44412 3.07274 1.95291 3.4672 1.60468 3.97622C1.25644 4.48524 1.0668 5.08601 1.05968 5.70271C1.0553 6.11377 1.13209 6.52166 1.28564 6.90299C1.43919 7.28432 1.66648 7.6316 1.9545 7.92493C2.24251 8.21825 2.58558 8.45186 2.96404 8.61235C3.34251 8.77284 3.74892 8.85707 4.16 8.8602Z" fill="#FFD600"/>
<path d="M4.22824 1.55666C5.05444 1.56597 5.85937 1.81988 6.54138 2.28631C7.22339 2.75275 7.75191 3.4108 8.06022 4.17738C8.36852 4.94397 8.44278 5.78471 8.27362 6.59347C8.10447 7.40223 7.69947 8.14273 7.10978 8.72149C6.52009 9.30025 5.77214 9.69132 4.96035 9.84532C4.14857 9.99931 3.30936 9.90933 2.54868 9.58674C1.788 9.26415 1.13996 8.7234 0.686364 8.03278C0.232771 7.34216 -0.00602787 6.53263 0.000115625 5.7064C0.00505708 5.15624 0.118364 4.61245 0.33356 4.1061C0.548756 3.59975 0.861623 3.14077 1.25428 2.75539C1.64694 2.37001 2.11169 2.06579 2.62198 1.8601C3.13227 1.65442 3.67808 1.5513 4.22824 1.55666ZM4.16 8.8602C4.77672 8.86435 5.38086 8.68571 5.89615 8.34684C6.41145 8.00796 6.81482 7.52404 7.05535 6.95614C7.29587 6.38823 7.36278 5.76181 7.24763 5.15591C7.13248 4.55002 6.84042 3.99181 6.40832 3.55175C5.97623 3.11168 5.42345 2.80948 4.81976 2.68327C4.21607 2.55707 3.58853 2.61252 3.01633 2.84263C2.44412 3.07274 1.95291 3.4672 1.60468 3.97622C1.25644 4.48524 1.0668 5.08601 1.05968 5.70271C1.0553 6.11377 1.13209 6.52166 1.28564 6.90299C1.43919 7.28432 1.66648 7.6316 1.9545 7.92493C2.24251 8.21825 2.58558 8.45186 2.96404 8.61235C3.34251 8.77284 3.74892 8.85707 4.16 8.8602Z" fill="black" fill-opacity="0.62"/>
<path d="M16.9255 4.02246C16.1186 4.02246 15.3108 4.02246 14.5039 4.02246C14.088 4.02246 13.851 3.83157 13.8446 3.51066C13.8381 3.18974 14.0797 2.96935 14.4836 2.9675C16.1232 2.96135 17.7628 2.96135 19.4025 2.9675C19.7852 2.9675 20.0185 3.18237 20.0258 3.48945C20.0332 3.79653 19.7888 4.01877 19.3859 4.02154C18.5661 4.02615 17.7453 4.02246 16.9255 4.02246Z" fill="#FFD600"/>
<path d="M16.9255 4.02246C16.1186 4.02246 15.3108 4.02246 14.5039 4.02246C14.088 4.02246 13.851 3.83157 13.8446 3.51066C13.8381 3.18974 14.0797 2.96935 14.4836 2.9675C16.1232 2.96135 17.7628 2.96135 19.4025 2.9675C19.7852 2.9675 20.0185 3.18237 20.0258 3.48945C20.0332 3.79653 19.7888 4.01877 19.3859 4.02154C18.5661 4.02615 17.7453 4.02246 16.9255 4.02246Z" fill="black" fill-opacity="0.62"/>
<path d="M16.9357 6.50402C16.1426 6.50402 15.3495 6.50402 14.5574 6.50402C14.0963 6.50402 13.839 6.30667 13.8455 5.9664C13.8519 5.62612 14.1018 5.4463 14.5371 5.44537C16.1355 5.44537 17.7339 5.44537 19.3324 5.44537C19.7704 5.44537 20.0194 5.63718 20.0267 5.96547C20.0341 6.29376 19.7768 6.5031 19.3148 6.50402C18.5209 6.50586 17.7296 6.50402 16.9357 6.50402Z" fill="#FFD600"/>
<path d="M16.9357 6.50402C16.1426 6.50402 15.3495 6.50402 14.5574 6.50402C14.0963 6.50402 13.839 6.30667 13.8455 5.9664C13.8519 5.62612 14.1018 5.4463 14.5371 5.44537C16.1355 5.44537 17.7339 5.44537 19.3324 5.44537C19.7704 5.44537 20.0194 5.63718 20.0267 5.96547C20.0341 6.29376 19.7768 6.5031 19.3148 6.50402C18.5209 6.50586 17.7296 6.50402 16.9357 6.50402Z" fill="black" fill-opacity="0.62"/>
</svg>
