<svg width="41" height="41" viewBox="0 0 41 41" fill="none" xmlns="http://www.w3.org/2000/svg">
<path d="M22.485 0.00256176L23.549 0.157127C23.6805 0.175914 23.8138 0.191285 23.9436 0.219465C24.3825 0.315962 24.6267 0.62851 24.5558 1.00766C24.485 1.38682 24.1536 1.59775 23.7164 1.56188C22.8274 1.48929 21.9351 1.36205 21.0469 1.38426C18.9131 1.44933 16.7909 1.72565 14.7115 2.20918C13.4177 2.50464 12.1146 2.83427 10.8858 3.31932C8.08479 4.43458 6.49217 6.68731 5.52208 9.43191C5.14121 10.5087 4.8893 11.6308 4.54259 12.7213C4.39059 13.2013 4.14209 13.6504 3.95251 14.1193C3.73134 14.6624 3.76635 14.7973 4.19332 15.2098C4.30861 15.3208 4.43414 15.4207 4.5554 15.5257C5.35812 16.2208 5.54086 17.1235 5.084 18.0731C4.18001 19.9495 3.07354 21.7214 1.78432 23.3573C1.22413 24.0687 1.24121 24.1259 2.03197 24.5862C2.27449 24.7271 2.52726 24.8483 2.76979 24.9867C3.87992 25.622 4.21211 26.6382 3.68095 27.8124C3.55542 28.0899 3.40513 28.3564 3.25398 28.6595C3.47344 28.8303 3.68949 29.0054 3.90896 29.1719C4.42133 29.5664 4.47086 29.8346 4.11988 30.3922C4.06438 30.4776 4.02168 30.5749 3.95507 30.6996C5.42216 31.3683 5.60576 32.522 5.236 33.9156C5.08741 34.4741 5.236 35.0326 5.47938 35.5475C5.72276 36.0624 6.30344 36.322 6.90292 36.1453C9.13259 35.4715 11.3614 34.7926 13.58 34.0838C14.6705 33.7363 15.749 33.3452 16.8113 32.9216C17.2877 32.7153 17.7382 32.4539 18.1538 32.1428C18.3831 31.991 18.5741 31.788 18.7117 31.5499C18.8494 31.3118 18.9299 31.045 18.9471 30.7705C18.9795 30.3119 19.2647 30.0745 19.6755 30.101C20.07 30.1266 20.3083 30.4246 20.2938 30.8824C20.269 31.6509 19.9564 32.2999 19.4176 32.8413C18.4868 33.7807 17.3024 34.2555 16.0872 34.6731L14.3554 35.2708C15.4954 36.5714 16.2921 38.0035 16.7413 39.5841H32.1133C31.7094 38.6397 31.2133 37.7558 30.9519 36.8079C30.5438 35.3229 30.2842 33.7969 29.9827 32.282C29.9617 32.1936 29.9592 32.1017 29.9754 32.0123C29.9915 31.9228 30.0259 31.8377 30.0765 31.7622C30.1271 31.6866 30.1928 31.6224 30.2693 31.5734C30.3459 31.5244 30.4318 31.4918 30.5216 31.4776C30.9101 31.4075 31.2286 31.6407 31.3174 32.0753C31.5736 33.3563 31.7939 34.6372 32.0962 35.9096C32.3566 36.9882 32.8131 38.0097 33.4429 38.9232C33.6354 39.2111 33.8004 39.5164 33.9357 39.8352C34.2277 40.5073 33.9433 40.9377 33.2149 40.9453C30.9872 40.9601 28.7593 40.9715 26.531 40.9795C23.1955 40.9886 19.8599 40.9954 16.5244 41C15.8319 41 15.7003 40.8933 15.5056 40.2434C15.1564 39.076 14.6969 37.9582 13.9882 36.9565C13.9113 36.8472 13.8293 36.7422 13.7439 36.6397C13.0232 35.7704 12.9634 35.7772 11.9071 36.106C10.4332 36.5654 8.93362 36.9463 7.46653 37.4245C6.03872 37.889 4.31117 37.3143 3.93543 35.2042C3.82356 34.58 3.8953 33.9071 3.97984 33.2692C4.07719 32.5416 4.04559 32.3503 3.46746 32.0062C2.45041 31.3999 2.35733 31.1616 2.70745 30.0045C2.54263 29.8662 2.36586 29.7244 2.19507 29.5775C1.74931 29.1941 1.6605 28.8875 1.8868 28.3393C2.02855 27.9977 2.22838 27.6758 2.38636 27.3402C2.68268 26.7245 2.59985 26.464 2.01831 26.1335C1.63574 25.9158 1.24206 25.7168 0.875717 25.4751C-0.0636315 24.8535 -0.256625 23.9884 0.341996 23.0328C0.559754 22.6836 0.826188 22.3633 1.07469 22.0337C2.14006 20.6158 3.06902 19.1004 3.84918 17.5077C4.03278 17.1371 3.99008 16.8835 3.69462 16.6342C3.62374 16.5744 3.5614 16.5035 3.49223 16.4403C2.34366 15.3925 2.1575 14.7384 2.80907 13.3336C3.38805 12.0894 3.67241 10.7641 4.07377 9.46863C4.94395 6.66852 6.44093 4.30563 8.99083 2.73521C10.4972 1.80867 12.1641 1.27581 13.8925 0.977776C15.9258 0.627655 17.9744 0.365492 20.0162 0.063193C20.0932 0.0470174 20.1691 0.0259092 20.2434 0L22.485 0.00256176Z" fill="#007020"/>
<path d="M40.9808 13.8545C40.8014 14.2166 40.5196 14.3668 40.1089 14.3506C39.5111 14.3267 38.9133 14.3506 38.3096 14.3421C37.8664 14.3361 37.5709 14.062 37.5658 13.6751C37.5607 13.2883 37.8561 12.992 38.2925 12.9843C38.9449 12.9715 39.5982 12.9843 40.2515 12.9792C40.6042 12.9792 40.8048 13.1927 40.9808 13.454V13.8545Z" fill="#007020"/>
<path d="M27.5294 0.00256348C27.888 0.210074 28.0281 0.514935 28.0093 0.932518C27.9854 1.47734 28.0093 2.02472 28.0024 2.57125C28.0024 3.099 27.7283 3.42521 27.3073 3.41752C26.8863 3.40984 26.643 3.10156 26.6395 2.5926C26.6395 2.0196 26.6566 1.44574 26.6327 0.873595C26.6156 0.462844 26.7659 0.180186 27.1289 0.00256348H27.5294Z" fill="#007020"/>
<path d="M24.4995 24.0627C24.3665 23.5149 24.0641 23.023 23.6353 22.6571C23.0085 22.1003 22.3441 21.5845 21.7011 21.044C19.421 19.1311 18.3707 16.6427 18.4424 13.7094C18.5474 9.2688 21.5166 5.72062 25.8846 4.95377C29.4533 4.32697 32.3405 5.70098 34.4745 8.5566C37.3831 12.4498 36.5291 18.3207 32.7171 21.2258C32.0253 21.7663 31.3631 22.3436 30.7333 22.9551C30.5002 23.1763 30.3696 23.5068 30.2056 23.7945C30.1134 23.9559 30.151 24.0738 30.3363 24.1771C31.0843 24.5904 31.4191 25.2505 31.4182 26.0917C31.4182 26.5588 31.4319 27.0268 31.3986 27.4913C31.3448 28.224 30.9716 28.7765 30.3303 29.1232C30.2413 29.1608 30.1653 29.2236 30.1116 29.3039C30.0579 29.3842 30.0288 29.4784 30.028 29.5749C29.9059 31.0215 28.7769 32.0915 27.3739 32.1112C25.9222 32.1308 24.7514 31.0864 24.6003 29.6074C24.5994 29.4992 24.5672 29.3936 24.5074 29.3034C24.4477 29.2132 24.3631 29.1423 24.2638 29.0993C23.666 28.7714 23.2988 28.2402 23.2391 27.5622C23.1831 26.9509 23.1831 26.3358 23.2391 25.7245C23.3151 24.9551 23.7668 24.4068 24.4995 24.0627ZM29.3824 22.2463C30.2517 21.5153 31.1501 20.7707 32.0339 20.0098C32.3847 19.7227 32.7112 19.4071 33.01 19.0662C34.1937 17.6429 34.8402 15.8492 34.8368 13.998C34.8333 12.1468 34.1802 10.3555 32.9912 8.93661C31.1501 6.75647 28.7906 5.70867 25.9469 6.31668C22.766 6.99984 20.7558 9.07495 20.0308 12.2038C19.2955 15.3797 20.2477 18.091 22.8112 20.1943C23.6216 20.8604 24.368 21.6024 25.1459 22.3078C25.169 22.3292 25.2134 22.3257 25.2501 22.3343V16.4608C24.7967 16.4027 24.3483 16.4044 23.9376 16.2815C22.9342 15.9834 22.3612 14.9416 22.5772 13.9109C22.7873 12.9143 23.7121 12.2423 24.7676 12.3191C25.7804 12.3926 26.5703 13.22 26.631 14.2832C26.6446 14.5283 26.631 14.7759 26.631 15.0176H27.9734C27.9981 14.6342 27.9785 14.2695 28.0511 13.9228C28.2757 12.8511 29.2347 12.2004 30.3439 12.3319C31.355 12.4523 32.1219 13.3755 32.0903 14.4361C32.0587 15.4822 31.2244 16.3284 30.1416 16.4002C29.8939 16.4164 29.6437 16.4002 29.3807 16.4002L29.3824 22.2463ZM27.321 25.2907C26.6549 25.2907 25.9879 25.2838 25.3218 25.2907C24.8573 25.2966 24.5977 25.5468 24.5798 25.9994C24.5635 26.4264 24.5652 26.8534 24.5798 27.2804C24.5951 27.7372 24.8547 28.0105 25.3056 28.0148C26.6389 28.0256 27.9719 28.0256 29.3047 28.0148C29.7684 28.0148 30.0203 27.7586 30.0391 27.2966C30.0553 26.8841 30.0527 26.47 30.0391 26.0567C30.0254 25.5178 29.7897 25.2941 29.2389 25.2881C28.5985 25.2855 27.9623 25.2898 27.3227 25.2907H27.321ZM27.9751 23.9021V16.4386H26.666V23.9226C26.9956 23.9226 27.2996 23.9226 27.6053 23.9226C27.7206 23.9209 27.8376 23.9132 27.9768 23.9021H27.9751ZM25.9734 29.4024C26.0042 30.2009 26.5951 30.7688 27.3551 30.7474C27.5285 30.7463 27.6998 30.7103 27.8589 30.6415C28.0181 30.5727 28.1617 30.4725 28.2812 30.347C28.4008 30.2215 28.4938 30.0731 28.5548 29.9108C28.6158 29.7486 28.6434 29.5757 28.636 29.4024H25.9734ZM29.3747 15.0637C29.7163 15.0355 29.9955 15.0449 30.2611 14.9783C30.4168 14.9346 30.5503 14.8339 30.6353 14.6963C30.7202 14.5587 30.7503 14.3942 30.7197 14.2354C30.6922 14.0767 30.6087 13.9332 30.4845 13.8307C30.3603 13.7283 30.2035 13.6737 30.0425 13.6769C29.881 13.6711 29.7233 13.7263 29.6006 13.8315C29.478 13.9367 29.3995 14.0843 29.3807 14.2448C29.3652 14.5175 29.3638 14.7909 29.3764 15.0637H29.3747ZM25.268 15.0321C25.268 14.7614 25.2834 14.5488 25.268 14.3387C25.2305 13.9246 24.947 13.6675 24.5627 13.6786C24.3948 13.6792 24.2337 13.7446 24.1131 13.8613C23.9924 13.978 23.9216 14.1368 23.9154 14.3046C23.894 14.6905 24.1425 14.9877 24.5533 15.0279C24.771 15.0526 24.9956 15.0321 25.268 15.0321Z" fill="#007020"/>
<path d="M6.27691 11.9707C6.63472 9.91352 7.36741 8.04849 8.74569 6.48149C9.82509 5.25436 11.1948 4.49177 12.7593 4.07419C13.1862 3.96062 13.5219 4.15959 13.6294 4.55155C13.7277 4.91107 13.5364 5.25521 13.1256 5.37391C12.0881 5.67279 11.1231 6.11856 10.3161 6.841C9.01212 8.00835 8.26662 9.50619 7.83965 11.1799C7.75425 11.5283 7.69106 11.8853 7.58346 12.2269C7.47586 12.5685 7.1394 12.7393 6.78672 12.6598C6.63346 12.6248 6.49781 12.536 6.4043 12.4096C6.3108 12.2832 6.26561 12.1275 6.27691 11.9707V11.9707Z" fill="#007020"/>
<path d="M36.576 3.73694C36.7545 3.88126 37.015 3.99312 37.0884 4.17758C37.1661 4.37911 37.1593 4.72667 37.0312 4.8744C36.5366 5.4319 36.013 5.96294 35.4625 6.46532C35.1977 6.71211 34.7989 6.65831 34.5581 6.40981C34.436 6.29247 34.3648 6.1318 34.36 5.96246C34.3552 5.79313 34.4172 5.62869 34.5325 5.50462C35.0244 4.98029 35.5368 4.47475 36.0577 3.97946C36.1712 3.8693 36.3591 3.83514 36.576 3.73694Z" fill="#007020"/>
<path d="M20.3151 6.00845C20.193 6.16558 20.0828 6.43543 19.8924 6.52082C19.702 6.60622 19.3442 6.59682 19.199 6.46958C18.6312 5.96649 18.0916 5.43253 17.5825 4.87013C17.3459 4.61394 17.4065 4.2365 17.6559 4.00251C17.9053 3.76853 18.2417 3.70107 18.4911 3.92651C19.0718 4.45169 19.6123 5.02384 20.1571 5.58745C20.2297 5.66004 20.2383 5.80009 20.3151 6.00845Z" fill="#007020"/>
<path d="M15.3374 14.343C15.0044 14.343 14.6705 14.3533 14.3383 14.343C13.9335 14.3276 13.6773 14.0732 13.6637 13.6991C13.6561 13.6087 13.6674 13.5176 13.697 13.4318C13.7266 13.346 13.7737 13.2673 13.8355 13.2008C13.8972 13.1342 13.9721 13.0813 14.0555 13.0454C14.1388 13.0094 14.2287 12.9913 14.3195 12.9921C15.0123 12.9716 15.7055 12.9716 16.3989 12.9921C16.4897 12.9915 16.5796 13.0099 16.6628 13.046C16.7461 13.0821 16.8209 13.1353 16.8825 13.202C16.944 13.2687 16.991 13.3475 17.0204 13.4334C17.0497 13.5193 17.0609 13.6104 17.053 13.7008C17.0385 14.074 16.7823 14.3285 16.3775 14.343C16.0317 14.3533 15.6841 14.343 15.3374 14.343Z" fill="#007020"/>
<path d="M6.15141 15.0322C5.9701 15.0319 5.79591 14.9615 5.66525 14.8358C5.5346 14.7101 5.45759 14.5387 5.45032 14.3575C5.45114 14.1834 5.51842 14.0162 5.63841 13.89C5.7584 13.7638 5.92205 13.6882 6.09591 13.6786C6.18539 13.671 6.27548 13.6819 6.36057 13.7106C6.44565 13.7394 6.52389 13.7854 6.59041 13.8457C6.65692 13.9061 6.71028 13.9795 6.74715 14.0614C6.78402 14.1432 6.8036 14.2319 6.80469 14.3217C6.81209 14.5025 6.74747 14.6788 6.62499 14.812C6.50251 14.9452 6.3322 15.0244 6.15141 15.0322Z" fill="#007020"/>
</svg>
