<svg width="30" height="36" viewBox="0 0 30 36" fill="none" xmlns="http://www.w3.org/2000/svg">
<path d="M0.000470399 17.9908C0.000470399 13.6462 0.000470399 9.30159 0.000470399 4.95699C0.000470399 2.54855 1.62052 0.577582 3.98192 0.103421C4.34648 0.0362926 4.7167 0.00478433 5.08736 0.00934091C9.30401 0.00369613 13.5216 0.00934125 17.7392 0.000874082C18.0385 -0.00770386 18.3362 0.0469348 18.6129 0.161223C18.8896 0.275511 19.1391 0.446878 19.3451 0.664136C22.4811 3.81643 25.6259 6.96089 28.7795 10.0975C28.9981 10.3015 29.1712 10.5495 29.2871 10.8251C29.403 11.1008 29.4593 11.3979 29.4521 11.6969C29.4396 18.135 29.4374 24.5745 29.4455 31.0152C29.4455 33.4509 27.8292 35.4285 25.4556 35.9017C25.0914 35.9692 24.7215 36.0008 24.3511 35.9958C17.9349 36.0014 11.5193 36.0014 5.10429 35.9958C2.12855 35.9958 0.0014112 33.8696 0.000470399 30.9051C-0.0001568 26.6019 -0.0001568 22.2971 0.000470399 17.9908ZM26.1687 13.0986H25.7181C23.2256 13.0986 20.7334 13.0986 18.2416 13.0986C16.995 13.0986 16.3534 12.4598 16.3534 11.2171C16.3534 8.73774 16.3534 6.25874 16.3534 3.78006V3.28143H5.16827C3.90666 3.28143 3.27915 3.90236 3.27915 5.1555C3.27915 13.7168 3.27915 22.278 3.27915 30.8393C3.27915 32.099 3.90384 32.7209 5.16074 32.7209H24.2909C25.5431 32.7209 26.1725 32.0943 26.1725 30.8327C26.1725 25.0706 26.1725 19.3079 26.1725 13.5446L26.1687 13.0986Z" fill="#AF03B3"/>
<path d="M8.20516 19.6071V16.3971H21.2286V19.6071H8.20516Z" fill="#AF03B3"/>
<path d="M8.21362 22.9291H17.98V26.1522H8.21362V22.9291Z" fill="#AF03B3"/>
</svg>
