<svg width="17" height="14" viewBox="0 0 17 14" fill="none" xmlns="http://www.w3.org/2000/svg">
<path d="M11.2324 2.174C10.6295 2.1739 10.0506 2.41048 9.6204 2.83284C9.19018 3.2552 8.94296 3.82958 8.93194 4.43237L8.90973 5.68173C8.90843 5.74881 8.89296 5.81486 8.86434 5.87554C8.83572 5.93622 8.7946 5.99017 8.74366 6.03384C8.69273 6.07751 8.63313 6.10992 8.56879 6.12893C8.50445 6.14795 8.43682 6.15315 8.37033 6.1442L7.13207 5.97603C5.50274 5.75392 3.94163 5.00351 2.44398 3.75573C1.96962 6.38138 2.89613 8.20029 5.12754 9.60354L6.51334 10.4745C6.57918 10.5159 6.63388 10.5728 6.67266 10.6402C6.71143 10.7076 6.7331 10.7835 6.73576 10.8612C6.73842 10.9389 6.722 11.0161 6.68792 11.086C6.65385 11.1559 6.60317 11.2164 6.54031 11.2622L5.27746 12.1848C6.02866 12.2316 6.74179 12.1982 7.33355 12.0808C11.0761 11.3336 13.5645 8.51759 13.5645 3.87234C13.5645 3.49317 12.7617 2.174 11.2324 2.174ZM7.34545 4.40302C7.3593 3.63837 7.59841 2.8948 8.03285 2.2654C8.46728 1.636 9.07774 1.14874 9.78779 0.864641C10.4978 0.580538 11.2759 0.512212 12.0246 0.668218C12.7733 0.824224 13.4593 1.19763 13.9968 1.74168C14.5608 1.73771 15.0407 1.8805 16.114 1.23004C15.8483 2.53096 15.7174 3.09575 15.151 3.87234C15.151 9.93433 11.4251 12.882 7.6445 13.6364C5.05218 14.1536 1.28267 13.304 0.202271 12.176C0.752783 12.1332 2.98974 11.8928 4.28273 10.9465C3.18884 10.2254 -1.16529 7.66326 1.69595 0.774713C3.03892 2.34296 4.40092 3.41067 5.78117 3.97705C6.69975 4.35384 6.92503 4.34591 7.34624 4.40381L7.34545 4.40302Z" fill="#002940"/>
</svg>
