<svg width="20" height="18" viewBox="0 0 20 18" fill="none" xmlns="http://www.w3.org/2000/svg">
<path d="M19.9989 13.42V16.956C19.999 17.2092 19.8924 17.453 19.7007 17.6382C19.5089 17.8234 19.2462 17.9363 18.9656 17.954C18.4801 17.984 18.0834 18 17.7768 18C7.95845 18 0 10.837 0 2C0 1.724 0.0166657 1.367 0.0511083 0.93C0.0707987 0.677444 0.19619 0.441011 0.401982 0.268409C0.607773 0.0958068 0.878643 -0.000114433 1.15994 2.56579e-07H5.08861C5.22642 -0.000125334 5.35937 0.045859 5.46162 0.12902C5.56387 0.212182 5.62813 0.326583 5.64191 0.45C5.66746 0.68 5.6908 0.863 5.71302 1.002C5.93382 2.38892 6.38632 3.73783 7.05516 5.003C7.16071 5.203 7.09183 5.442 6.89184 5.57L4.49419 7.112C5.96017 10.1865 8.68235 12.6365 12.0982 13.956L13.8092 11.802C13.8792 11.714 13.9812 11.6509 14.0975 11.6237C14.2139 11.5964 14.3372 11.6068 14.4459 11.653C15.8514 12.2539 17.3497 12.6601 18.8901 12.858C19.0445 12.878 19.2478 12.9 19.5011 12.922C19.6381 12.9346 19.7649 12.9926 19.8571 13.0846C19.9492 13.1766 20.0002 13.2961 20 13.42H19.9989Z" fill="#FBFBFB"/>
</svg>
