<svg width="30" height="35" viewBox="0 0 30 35" fill="none" xmlns="http://www.w3.org/2000/svg">
<path d="M3.70536 23.6587C3.33257 22.0479 3.14511 20.4005 3.14654 18.7479C3.14654 10.2173 8.06248 2.92737 15.0003 0C21.9382 2.92737 26.8541 10.2173 26.8541 18.7479C26.8541 20.4413 26.6611 22.0861 26.2953 23.6587L29.716 26.6699C29.8632 26.7996 29.9602 26.976 29.9901 27.1688C30.0201 27.3616 29.9813 27.5587 29.8802 27.7262L25.7179 34.5936C25.6516 34.7027 25.5611 34.7955 25.4532 34.8648C25.3454 34.9341 25.223 34.9782 25.0954 34.9938C24.9677 35.0093 24.8382 34.9958 24.7166 34.9543C24.595 34.9129 24.4846 34.8446 24.3936 34.7546L20.5767 30.9755C20.2592 30.661 19.8285 30.4843 19.3795 30.4842H10.6212C10.1721 30.4843 9.74147 30.661 9.42397 30.9755L5.60705 34.7546C5.5161 34.8446 5.40564 34.9129 5.28405 34.9543C5.16246 34.9958 5.03293 35.0093 4.9053 34.9938C4.77766 34.9782 4.65527 34.9341 4.54742 34.8648C4.43956 34.7955 4.34907 34.7027 4.28281 34.5936L0.120438 27.7279C0.0189618 27.5602 -0.0201613 27.3628 0.00983202 27.1696C0.0398254 26.9764 0.13705 26.7997 0.284697 26.6699L3.70536 23.6587ZM15.0003 18.7479C15.8986 18.7479 16.76 18.3946 17.3952 17.7658C18.0303 17.1369 18.3871 16.284 18.3871 15.3947C18.3871 14.5054 18.0303 13.6525 17.3952 13.0236C16.76 12.3947 15.8986 12.0415 15.0003 12.0415C14.1021 12.0415 13.2407 12.3947 12.6055 13.0236C11.9704 13.6525 11.6135 14.5054 11.6135 15.3947C11.6135 16.284 11.9704 17.1369 12.6055 17.7658C13.2407 18.3946 14.1021 18.7479 15.0003 18.7479Z" fill="black"/>
</svg>
