<svg width="28" height="23" viewBox="0 0 28 23" fill="none" xmlns="http://www.w3.org/2000/svg">
<path d="M0 11.5C1.21638 4.95778 7.02264 0 14 0C20.9774 0 26.7823 4.95778 28 11.5C26.7836 18.0422 20.9774 23 14 23C7.02264 23 1.21767 18.0422 0 11.5ZM14 17.8889C15.716 17.8889 17.3617 17.2158 18.5751 16.0176C19.7884 14.8195 20.4701 13.1944 20.4701 11.5C20.4701 9.80556 19.7884 8.18052 18.5751 6.98237C17.3617 5.78422 15.716 5.11111 14 5.11111C12.284 5.11111 10.6383 5.78422 9.42495 6.98237C8.21157 8.18052 7.5299 9.80556 7.5299 11.5C7.5299 13.1944 8.21157 14.8195 9.42495 16.0176C10.6383 17.2158 12.284 17.8889 14 17.8889ZM14 15.3333C12.9704 15.3333 11.983 14.9295 11.255 14.2106C10.5269 13.4917 10.1179 12.5167 10.1179 11.5C10.1179 10.4833 10.5269 9.50831 11.255 8.78942C11.983 8.07053 12.9704 7.66667 14 7.66667C15.0296 7.66667 16.017 8.07053 16.745 8.78942C17.4731 9.50831 17.8821 10.4833 17.8821 11.5C17.8821 12.5167 17.4731 13.4917 16.745 14.2106C16.017 14.9295 15.0296 15.3333 14 15.3333Z" fill="black"/>
</svg>
