<svg width="60" height="60" viewBox="0 0 60 60" fill="none" xmlns="http://www.w3.org/2000/svg">
<circle cx="30" cy="30" r="30" fill="#ACEBBE"/>
<path d="M32.485 9.00256L33.549 9.15713C33.6805 9.17591 33.8138 9.19128 33.9436 9.21947C34.3825 9.31596 34.6267 9.62851 34.5558 10.0077C34.485 10.3868 34.1536 10.5977 33.7164 10.5619C32.8274 10.4893 31.9351 10.3621 31.0469 10.3843C28.9131 10.4493 26.7909 10.7256 24.7115 11.2092C23.4177 11.5046 22.1146 11.8343 20.8858 12.3193C18.0848 13.4346 16.4922 15.6873 15.5221 18.4319C15.1412 19.5087 14.8893 20.6308 14.5426 21.7213C14.3906 22.2013 14.1421 22.6504 13.9525 23.1193C13.7313 23.6624 13.7663 23.7973 14.1933 24.2098C14.3086 24.3208 14.4341 24.4207 14.5554 24.5257C15.3581 25.2208 15.5409 26.1235 15.084 27.0731C14.18 28.9495 13.0735 30.7214 11.7843 32.3573C11.2241 33.0687 11.2412 33.1259 12.032 33.5862C12.2745 33.7271 12.5273 33.8483 12.7698 33.9867C13.8799 34.622 14.2121 35.6382 13.681 36.8124C13.5554 37.0899 13.4051 37.3564 13.254 37.6595C13.4734 37.8303 13.6895 38.0054 13.909 38.1719C14.4213 38.5664 14.4709 38.8346 14.1199 39.3922C14.0644 39.4776 14.0217 39.5749 13.9551 39.6996C15.4222 40.3683 15.6058 41.5219 15.236 42.9156C15.0874 43.4741 15.236 44.0326 15.4794 44.5475C15.7228 45.0624 16.3034 45.322 16.9029 45.1453C19.1326 44.4715 21.3614 43.7926 23.58 43.0838C24.6705 42.7363 25.749 42.3452 26.8113 41.9216C27.2877 41.7153 27.7382 41.4539 28.1537 41.1428C28.3831 40.991 28.5741 40.788 28.7117 40.5499C28.8494 40.3118 28.9299 40.045 28.9471 39.7705C28.9795 39.3119 29.2647 39.0745 29.6755 39.101C30.07 39.1266 30.3083 39.4246 30.2938 39.8824C30.269 40.6509 29.9564 41.2999 29.4176 41.8413C28.4868 42.7807 27.3024 43.2555 26.0872 43.6731L24.3554 44.2708C25.4954 45.5714 26.2921 47.0035 26.7413 48.5841H42.1133C41.7094 47.6397 41.2133 46.7558 40.9519 45.8079C40.5438 44.3229 40.2842 42.7969 39.9827 41.282C39.9617 41.1936 39.9592 41.1017 39.9754 41.0123C39.9915 40.9228 40.0259 40.8377 40.0765 40.7622C40.1271 40.6866 40.1928 40.6224 40.2693 40.5734C40.3459 40.5244 40.4318 40.4918 40.5216 40.4776C40.9101 40.4075 41.2286 40.6407 41.3174 41.0753C41.5736 42.3563 41.7939 43.6372 42.0962 44.9096C42.3566 45.9882 42.8131 47.0097 43.4429 47.9232C43.6354 48.2111 43.8004 48.5164 43.9357 48.8352C44.2277 49.5073 43.9433 49.9377 43.2149 49.9453C40.9872 49.9601 38.7593 49.9715 36.531 49.9795C33.1955 49.9886 29.8599 49.9954 26.5244 50C25.8319 50 25.7003 49.8933 25.5056 49.2434C25.1564 48.076 24.6969 46.9582 23.9882 45.9565C23.9113 45.8472 23.8293 45.7422 23.7439 45.6397C23.0232 44.7704 22.9634 44.7772 21.9071 45.106C20.4332 45.5654 18.9336 45.9463 17.4665 46.4245C16.0387 46.889 14.3112 46.3143 13.9354 44.2042C13.8236 43.58 13.8953 42.9071 13.9798 42.2692C14.0772 41.5416 14.0456 41.3503 13.4675 41.0062C12.4504 40.3999 12.3573 40.1616 12.7074 39.0045C12.5426 38.8662 12.3659 38.7244 12.1951 38.5775C11.7493 38.1941 11.6605 37.8875 11.8868 37.3393C12.0286 36.9977 12.2284 36.6758 12.3864 36.3402C12.6827 35.7245 12.5998 35.464 12.0183 35.1335C11.6357 34.9158 11.2421 34.7168 10.8757 34.4751C9.93637 33.8535 9.74338 32.9884 10.342 32.0328C10.5598 31.6836 10.8262 31.3633 11.0747 31.0337C12.1401 29.6158 13.069 28.1004 13.8492 26.5077C14.0328 26.1371 13.9901 25.8835 13.6946 25.6342C13.6237 25.5744 13.5614 25.5035 13.4922 25.4403C12.3437 24.3925 12.1575 23.7384 12.8091 22.3336C13.388 21.0894 13.6724 19.7641 14.0738 18.4686C14.9439 15.6685 16.4409 13.3056 18.9908 11.7352C20.4972 10.8087 22.1641 10.2758 23.8925 9.97778C25.9258 9.62766 27.9744 9.36549 30.0162 9.06319C30.0932 9.04702 30.1691 9.02591 30.2434 9L32.485 9.00256Z" fill="#007020"/>
<path d="M50.9808 22.8545C50.8014 23.2166 50.5196 23.3668 50.1089 23.3506C49.5111 23.3267 48.9133 23.3506 48.3096 23.3421C47.8664 23.3361 47.5709 23.062 47.5658 22.6751C47.5607 22.2883 47.8561 21.992 48.2925 21.9843C48.9449 21.9715 49.5982 21.9843 50.2515 21.9792C50.6042 21.9792 50.8048 22.1927 50.9808 22.454V22.8545Z" fill="#007020"/>
<path d="M37.5294 9.00256C37.888 9.21007 38.0281 9.51494 38.0093 9.93252C37.9854 10.4773 38.0093 11.0247 38.0024 11.5713C38.0024 12.099 37.7283 12.4252 37.3073 12.4175C36.8863 12.4098 36.643 12.1016 36.6395 11.5926C36.6395 11.0196 36.6566 10.4457 36.6327 9.8736C36.6156 9.46284 36.7659 9.18019 37.1289 9.00256H37.5294Z" fill="#007020"/>
<path d="M34.4995 33.0627C34.3665 32.5149 34.0641 32.023 33.6353 31.6571C33.0085 31.1003 32.3441 30.5845 31.7011 30.044C29.421 28.1311 28.3707 25.6427 28.4424 22.7094C28.5474 18.2688 31.5166 14.7206 35.8846 13.9538C39.4533 13.327 42.3405 14.701 44.4745 17.5566C47.3831 21.4498 46.5291 27.3207 42.7171 30.2258C42.0253 30.7663 41.3631 31.3436 40.7333 31.9551C40.5002 32.1763 40.3696 32.5068 40.2056 32.7945C40.1134 32.9559 40.151 33.0738 40.3363 33.1771C41.0843 33.5904 41.4191 34.2505 41.4182 35.0917C41.4182 35.5588 41.4319 36.0268 41.3986 36.4913C41.3448 37.224 40.9716 37.7765 40.3303 38.1232C40.2413 38.1608 40.1653 38.2236 40.1116 38.3039C40.0579 38.3842 40.0288 38.4784 40.028 38.5749C39.9059 40.0215 38.7769 41.0915 37.3739 41.1112C35.9222 41.1308 34.7514 40.0864 34.6003 38.6074C34.5994 38.4992 34.5672 38.3936 34.5074 38.3034C34.4477 38.2132 34.3631 38.1423 34.2638 38.0993C33.666 37.7714 33.2988 37.2402 33.2391 36.5622C33.1831 35.9509 33.1831 35.3358 33.2391 34.7245C33.3151 33.9551 33.7668 33.4068 34.4995 33.0627ZM39.3824 31.2463C40.2517 30.5153 41.1501 29.7707 42.0339 29.0098C42.3847 28.7227 42.7112 28.4071 43.01 28.0662C44.1937 26.6429 44.8402 24.8492 44.8368 22.998C44.8333 21.1468 44.1802 19.3555 42.9912 17.9366C41.1501 15.7565 38.7906 14.7087 35.9469 15.3167C32.766 15.9998 30.7558 18.075 30.0308 21.2038C29.2955 24.3797 30.2477 27.091 32.8112 29.1943C33.6216 29.8604 34.368 30.6024 35.1459 31.3078C35.169 31.3292 35.2134 31.3257 35.2501 31.3343V25.4608C34.7967 25.4027 34.3483 25.4044 33.9376 25.2815C32.9342 24.9834 32.3612 23.9416 32.5772 22.9109C32.7873 21.9143 33.7121 21.2423 34.7676 21.3191C35.7804 21.3926 36.5703 22.22 36.631 23.2832C36.6446 23.5283 36.631 23.7759 36.631 24.0176H37.9734C37.9981 23.6342 37.9785 23.2695 38.0511 22.9228C38.2757 21.8511 39.2347 21.2004 40.3439 21.3319C41.355 21.4523 42.1219 22.3755 42.0903 23.4361C42.0587 24.4822 41.2244 25.3284 40.1416 25.4002C39.8939 25.4164 39.6437 25.4002 39.3807 25.4002L39.3824 31.2463ZM37.321 34.2907C36.6549 34.2907 35.9879 34.2838 35.3218 34.2907C34.8573 34.2966 34.5977 34.5469 34.5798 34.9994C34.5635 35.4264 34.5652 35.8534 34.5798 36.2804C34.5951 36.7372 34.8547 37.0105 35.3056 37.0148C36.6389 37.0256 37.9719 37.0256 39.3047 37.0148C39.7684 37.0148 40.0203 36.7586 40.0391 36.2966C40.0553 35.8841 40.0527 35.47 40.0391 35.0567C40.0254 34.5178 39.7897 34.2941 39.2389 34.2881C38.5985 34.2855 37.9623 34.2898 37.3227 34.2907H37.321ZM37.9751 32.9021V25.4386H36.666V32.9226C36.9956 32.9226 37.2996 32.9226 37.6053 32.9226C37.7206 32.9209 37.8376 32.9132 37.9768 32.9021H37.9751ZM35.9734 38.4024C36.0042 39.2009 36.5951 39.7688 37.3551 39.7474C37.5285 39.7463 37.6998 39.7103 37.8589 39.6415C38.0181 39.5727 38.1617 39.4725 38.2812 39.347C38.4008 39.2215 38.4938 39.0731 38.5548 38.9108C38.6158 38.7486 38.6434 38.5757 38.636 38.4024H35.9734ZM39.3747 24.0637C39.7163 24.0355 39.9955 24.0449 40.2611 23.9783C40.4168 23.9346 40.5503 23.8339 40.6353 23.6963C40.7202 23.5587 40.7503 23.3942 40.7197 23.2354C40.6922 23.0767 40.6087 22.9332 40.4845 22.8307C40.3603 22.7283 40.2035 22.6737 40.0425 22.6769C39.881 22.6711 39.7233 22.7263 39.6006 22.8315C39.478 22.9367 39.3995 23.0843 39.3807 23.2448C39.3652 23.5175 39.3638 23.7909 39.3764 24.0637H39.3747ZM35.268 24.0321C35.268 23.7614 35.2834 23.5488 35.268 23.3387C35.2305 22.9246 34.947 22.6675 34.5627 22.6786C34.3948 22.6792 34.2337 22.7446 34.1131 22.8613C33.9924 22.978 33.9216 23.1368 33.9154 23.3046C33.894 23.6905 34.1425 23.9877 34.5533 24.0279C34.771 24.0526 34.9956 24.0321 35.268 24.0321Z" fill="#007020"/>
<path d="M16.2769 20.9707C16.6347 18.9135 17.3674 17.0485 18.7457 15.4815C19.8251 14.2544 21.1948 13.4918 22.7593 13.0742C23.1862 12.9606 23.5219 13.1596 23.6294 13.5516C23.7277 13.9111 23.5364 14.2552 23.1256 14.3739C22.0881 14.6728 21.1231 15.1186 20.3161 15.841C19.0121 17.0084 18.2666 18.5062 17.8396 20.1799C17.7543 20.5283 17.6911 20.8853 17.5835 21.2269C17.4759 21.5685 17.1394 21.7393 16.7867 21.6598C16.6335 21.6248 16.4978 21.536 16.4043 21.4096C16.3108 21.2832 16.2656 21.1275 16.2769 20.9707Z" fill="#007020"/>
<path d="M46.576 12.7369C46.7545 12.8813 47.015 12.9931 47.0884 13.1776C47.1661 13.3791 47.1593 13.7267 47.0312 13.8744C46.5366 14.4319 46.013 14.9629 45.4625 15.4653C45.1977 15.7121 44.7989 15.6583 44.5581 15.4098C44.436 15.2925 44.3648 15.1318 44.36 14.9625C44.3552 14.7931 44.4172 14.6287 44.5325 14.5046C45.0244 13.9803 45.5368 13.4748 46.0577 12.9795C46.1712 12.8693 46.3591 12.8351 46.576 12.7369Z" fill="#007020"/>
<path d="M30.3151 15.0084C30.193 15.1656 30.0828 15.4354 29.8924 15.5208C29.702 15.6062 29.3442 15.5968 29.199 15.4696C28.6312 14.9665 28.0916 14.4325 27.5825 13.8701C27.3459 13.6139 27.4065 13.2365 27.6559 13.0025C27.9053 12.7685 28.2417 12.7011 28.4911 12.9265C29.0718 13.4517 29.6123 14.0238 30.1571 14.5875C30.2297 14.66 30.2383 14.8001 30.3151 15.0084Z" fill="#007020"/>
<path d="M25.3374 23.343C25.0044 23.343 24.6705 23.3533 24.3383 23.343C23.9335 23.3276 23.6773 23.0732 23.6637 22.6991C23.6561 22.6087 23.6674 22.5176 23.697 22.4318C23.7266 22.346 23.7737 22.2673 23.8355 22.2008C23.8972 22.1342 23.9721 22.0813 24.0555 22.0454C24.1388 22.0094 24.2287 21.9913 24.3195 21.9921C25.0123 21.9716 25.7055 21.9716 26.3989 21.9921C26.4897 21.9915 26.5796 22.0099 26.6628 22.046C26.7461 22.0821 26.8209 22.1353 26.8825 22.202C26.944 22.2687 26.991 22.3475 27.0204 22.4334C27.0497 22.5193 27.0609 22.6104 27.053 22.7008C27.0385 23.074 26.7823 23.3285 26.3775 23.343C26.0317 23.3533 25.6841 23.343 25.3374 23.343Z" fill="#007020"/>
<path d="M16.1514 24.0322C15.9701 24.0319 15.7959 23.9615 15.6653 23.8358C15.5346 23.7101 15.4576 23.5387 15.4503 23.3575C15.4511 23.1834 15.5184 23.0162 15.6384 22.89C15.7584 22.7638 15.922 22.6882 16.0959 22.6786C16.1854 22.671 16.2755 22.6819 16.3606 22.7106C16.4457 22.7394 16.5239 22.7854 16.5904 22.8457C16.6569 22.9061 16.7103 22.9795 16.7471 23.0614C16.784 23.1432 16.8036 23.2319 16.8047 23.3217C16.8121 23.5025 16.7475 23.6788 16.625 23.812C16.5025 23.9452 16.3322 24.0244 16.1514 24.0322Z" fill="#007020"/>
</svg>
