<svg width="20" height="24" viewBox="0 0 20 24" fill="none" xmlns="http://www.w3.org/2000/svg">
<path d="M17.0711 16.9705L10 24L2.92889 16.9705C1.53038 15.5802 0.577985 13.8089 0.192143 11.8805C-0.193699 9.95211 0.00434094 7.95329 0.761221 6.13679C1.5181 4.3203 2.79982 2.76771 4.44431 1.67537C6.0888 0.583034 8.02219 0 10 0C11.9778 0 13.9112 0.583034 15.5557 1.67537C17.2002 2.76771 18.4819 4.3203 19.2388 6.13679C19.9957 7.95329 20.1937 9.95211 19.8079 11.8805C19.422 13.8089 18.4696 15.5802 17.0711 16.9705ZM10 12.1502C10.5894 12.1502 11.1546 11.9174 11.5713 11.5031C11.9881 11.0888 12.2222 10.5269 12.2222 9.94104C12.2222 9.35514 11.9881 8.79324 11.5713 8.37894C11.1546 7.96465 10.5894 7.7319 10 7.7319C9.41063 7.7319 8.8454 7.96465 8.42865 8.37894C8.01191 8.79324 7.77778 9.35514 7.77778 9.94104C7.77778 10.5269 8.01191 11.0888 8.42865 11.5031C8.8454 11.9174 9.41063 12.1502 10 12.1502Z" fill="#FBFBFB"/>
</svg>
