<svg width="20" height="20" viewBox="0 0 20 20" fill="none" xmlns="http://www.w3.org/2000/svg">
<path d="M0.243 5.68651L9.49 0.14251C9.64542 0.0492587 9.82325 0 10.0045 0C10.1857 0 10.3636 0.0492587 10.519 0.14251L19.757 5.68751C19.8311 5.73192 19.8925 5.79479 19.9351 5.86998C19.9776 5.94516 20 6.0301 20 6.11651V18.8325C20 19.0977 19.8946 19.3521 19.7071 19.5396C19.5196 19.7272 19.2652 19.8325 19 19.8325H1C0.734784 19.8325 0.48043 19.7272 0.292893 19.5396C0.105357 19.3521 1.10073e-08 19.0977 1.10073e-08 18.8325V6.11551C-1.81179e-05 6.0291 0.0223578 5.94416 0.0649455 5.86898C0.107533 5.79379 0.168879 5.73092 0.243 5.68651ZM16.346 7.07651L10.061 12.5155L3.647 7.07051L2.353 8.59451L10.073 15.1495L17.654 8.58951L16.346 7.07651Z" fill="#FBFBFB"/>
</svg>
